
        <svg xmlns="http://www.w3.org/2000/svg" xmlns:xlink="http://www.w3.org/1999/xlink" version="1.1" width="3246.2722649752595" 
        height="3209.2354529588497" viewBox="0 0 3246.2722649752595 3209.2354529588497">
			
			<g transform="scale(12.313613248762971) translate(10, 10)">
				<defs id="SvgjsDefs2723"><linearGradient id="SvgjsLinearGradient2732"><stop id="SvgjsStop2733" stop-color="#905e26" offset="0"></stop><stop id="SvgjsStop2734" stop-color="#f5ec9b" offset="0.5"></stop><stop id="SvgjsStop2735" stop-color="#905e26" offset="1"></stop></linearGradient><linearGradient id="SvgjsLinearGradient2736"><stop id="SvgjsStop2737" stop-color="#905e26" offset="0"></stop><stop id="SvgjsStop2738" stop-color="#f5ec9b" offset="0.5"></stop><stop id="SvgjsStop2739" stop-color="#905e26" offset="1"></stop></linearGradient><linearGradient id="SvgjsLinearGradient2740"><stop id="SvgjsStop2741" stop-color="#905e26" offset="0"></stop><stop id="SvgjsStop2742" stop-color="#f5ec9b" offset="0.5"></stop><stop id="SvgjsStop2743" stop-color="#905e26" offset="1"></stop></linearGradient><linearGradient id="SvgjsLinearGradient2744"><stop id="SvgjsStop2745" stop-color="#905e26" offset="0"></stop><stop id="SvgjsStop2746" stop-color="#f5ec9b" offset="0.5"></stop><stop id="SvgjsStop2747" stop-color="#905e26" offset="1"></stop></linearGradient></defs><g id="SvgjsG2724" featureKey="rootContainer" transform="matrix(2.3096835462875545,0,0,2.3096835462875545,-0.08665033256438151,0.06621916053267829)" fill="url(#SvgjsLinearGradient2732)"><path xmlns="http://www.w3.org/2000/svg" d="M104.6 41.3a52.2 52.2 0 0 0-3.5-11.2A51.1 51.1 0 0 0 44.3 1a49.6 49.6 0 0 0-5.7 1.5 49.1 49.1 0 0 0-7.9 2.7A51.6 51.6 0 0 0 6.3 77a53.7 53.7 0 0 0 4.1 6.4 57 57 0 0 0 5 5.7 51.7 51.7 0 0 0 55.3 11.5l3.3-1.4 3-1.5a50.9 50.9 0 0 0 5.8-3.8l2.7-2.1 1.2-1.1 1.1-.9 2-1.8.7-.6.6-.7 1.8-2a48.5 48.5 0 0 0 5.9-8.3 50.4 50.4 0 0 0 5.6-14.7 51.6 51.6 0 0 0 .2-20.4zM87.1 88.6l-1.2 1.1-1.2 1.1-2.6 2.1a49.5 49.5 0 0 1-5.7 3.6l-3 1.5-3.2 1.3-4.9 1.6h-.5a50.9 50.9 0 0 1-20.3.1 51.8 51.8 0 0 1-11.1-3.6A50.5 50.5 0 0 1 22.9 91a52 52 0 0 1-9.1-9.4 50.3 50.3 0 0 1-3.7-5.7c-.6-1-1.1-2-1.6-3.1s-1-2.1-1.3-3.2a50.6 50.6 0 0 1 8.6-50.8l.8-.8.5-.6.6-.6 1.2-1.1 2.4-2.1A50.5 50.5 0 0 1 62.4 3.2a48.5 48.5 0 0 1 14.7 5.2 47 47 0 0 1 8.3 5.8l2 1.8.7.6.6.7 1.8 2a49.7 49.7 0 0 1 11.3 22.9 50.8 50.8 0 0 1-.1 20.2 51.6 51.6 0 0 1-3.6 11 50.2 50.2 0 0 1-6.6 10.5l-2.1 2.4zm-44.9 13a50.1 50.1 0 0 1-13.7-5 51.8 51.8 0 0 1-6.2-4 55.2 55.2 0 0 1-5.5-4.8 49.9 49.9 0 0 1-11-53.2c.4-1.1.9-2.1 1.3-3.1l.6-1.3a50.2 50.2 0 0 0-3.4 11 51.3 51.3 0 0 0 2.4 28.5c.4 1.1.9 2.2 1.4 3.2s1 2.1 1.6 3.1a50.6 50.6 0 0 0 3.7 5.8 51.5 51.5 0 0 0 9.2 9.5 50.9 50.9 0 0 0 10.7 6.5 51 51 0 0 0 28.7 3.9 50.3 50.3 0 0 1-19.8-.1zm61.9-39.9a50.2 50.2 0 0 1-5.5 14.7 48.4 48.4 0 0 1-5.8 8.3l-1.8 2-.6.7-.7.6-1.9 1.7h.2l2.3-2.4 2.1-2.5A51.3 51.3 0 0 0 98.9 74a51.4 51.4 0 0 0 3.2-31.6 49.6 49.6 0 0 0-2.5-8.2 49.4 49.4 0 0 0-3.1-6.5 48.7 48.7 0 0 0-5.9-8.3l-1.8-2-.6-.7-.7-.6-2-1.8A49.9 49.9 0 0 0 77.3 8a49.3 49.3 0 0 0-6.5-3.2 49.8 49.8 0 0 0-8.2-2.6A52.2 52.2 0 0 0 49.9 1a50.8 50.8 0 0 1 22.7 3.2l3.2 1.3 3.1 1.6a50.1 50.1 0 0 1 5.7 3.7l2.6 2.1 1.2 1.1 1.2 1.1 2.3 2.3 2.1 2.4a50.4 50.4 0 0 1 6.5 10.5 51.6 51.6 0 0 1 3.6 11 51.1 51.1 0 0 1 0 20.3z"></path></g><g id="SvgjsG2725" featureKey="symbolFeature-0" transform="matrix(0.08333662893824256,0,0,0.08333662893824256,100.66586400142727,36.90817584262683)" fill="url(#SvgjsLinearGradient2736)"><g xmlns="http://www.w3.org/2000/svg"><g><path d="M461.95,110.587h-16.083v14.839h16.083V110.587z M441.156,101.204h25.505c2.604,0,4.711,2.102,4.711,4.692v24.223    c0,2.566-2.106,4.668-4.711,4.668h-25.505c-2.604,0-4.711-2.103-4.711-4.668v-24.223    C436.445,103.306,438.553,101.204,441.156,101.204z M419.905,110.587h-16.123v14.839h16.123V110.587z M399.072,101.204h25.496    c2.612,0,4.719,2.102,4.719,4.692v24.223c0,2.566-2.106,4.668-4.719,4.668h-25.496c-2.605,0-4.711-2.103-4.711-4.668v-24.223    C394.361,103.306,396.467,101.204,399.072,101.204z M377.813,110.587h-16.115v14.839h16.115V110.587z M357.022,101.204h25.509    c2.601,0,4.703,2.102,4.703,4.692v24.223c0,2.566-2.103,4.668-4.703,4.668h-25.509c-2.601,0-4.71-2.103-4.71-4.668v-24.223    C352.313,103.306,354.422,101.204,357.022,101.204z M486.568,82.483H25.429v58.007h461.14V82.483z M20.726,73.099h470.553    c2.607,0,4.711,2.095,4.711,4.685v67.382c0,2.57-2.104,4.684-4.711,4.684H20.726c-2.608,0-4.717-2.114-4.717-4.684V77.784    C16.009,75.194,18.118,73.099,20.726,73.099z M301.463,334.447v19.975l98.451-42.795v-19.611l-98.451-42.506v19.66l72.068,28.053    c1.26,0.443,2.327,1.391,2.837,2.689c0.95,2.406-0.233,5.152-2.648,6.104L301.463,334.447z M292.033,361.596v-30.322    c0-2.046,1.344-3.784,3.187-4.428l63.946-25.175l-64.139-24.942c-1.838-0.724-2.945-2.498-2.945-4.369l-0.049-29.96    c0-2.59,2.111-4.692,4.719-4.692c0.835,0,1.609,0.224,2.295,0.6l107.452,46.351c1.758,0.767,2.837,2.48,2.837,4.291v25.727    c0,2.063-1.304,3.797-3.142,4.428l-107.568,46.766c-2.375,1.026-5.132-0.064-6.163-2.431    C292.189,362.823,292.082,362.195,292.033,361.596z M267.957,224.566l-36.844,152.62h12.791l37.026-152.62H267.957z     M220.738,380.355l38.984-161.548c0.498-2.15,2.444-3.605,4.555-3.605h22.632c2.601,0,4.687,2.102,4.687,4.692    c0,0.5-0.056,1.011-0.24,1.471l-39.218,161.62c-0.54,2.139-2.446,3.562-4.554,3.585h-22.407c-2.603,0-4.711-2.09-4.711-4.691    C220.465,381.352,220.543,380.844,220.738,380.355z M112.101,311.479l98.481,42.616V334.26l-72.03-28.508    c-1.296-0.42-2.375-1.411-2.905-2.777c-0.923-2.406,0.265-5.116,2.718-6.031l72.216-27.461v-20.141l-98.481,42.491V311.479z     M213.082,365.369l-107.536-46.577c-1.757-0.763-2.837-2.474-2.837-4.272v-25.742c0-2.082,1.344-3.855,3.258-4.455l107.452-46.391    c2.381-1.003,5.132,0.08,6.164,2.446c0.273,0.611,0.391,1.227,0.391,1.85v30.476c0,2.111-1.384,3.885-3.345,4.484l-63.671,24.22    l64.063,25.358c1.835,0.724,2.953,2.481,2.953,4.352v30.127c0,2.578-2.111,4.668-4.719,4.668    C214.488,365.912,213.724,365.725,213.082,365.369z M486.568,172.259H25.429v257.255h461.14V172.259z M20.726,162.875h470.553    c2.607,0,4.711,2.118,4.711,4.692v266.647c0,2.569-2.104,4.683-4.711,4.683H20.726c-2.608,0-4.717-2.113-4.717-4.683V167.567    C16.009,164.993,18.118,162.875,20.726,162.875z"></path></g></g></g><g id="SvgjsG2726" featureKey="nameFeature-0" transform="matrix(2.182070684726396,0,0,2.182070684726396,74.4439189171754,85.05739774269756)" fill="url(#SvgjsLinearGradient2740)"><path d="M7.16 40 l-0.08 0 c-0.16 0 -0.48 -0.08 -0.8 -0.16 c-1.08 -0.36 -2.24 -1.2 -2.6 -1.88 c-0.08 -0.12 -0.28 -0.32 -0.48 -0.44 c-0.24 -0.12 -0.84 -0.84 -1.04 -1.24 l-0.2 -0.32 c-0.64 -0.76 -1.08 -1.88 -1.16 -3.04 c0 -0.36 -0.08 -0.72 -0.12 -0.76 l-0.04 -0.12 l0.12 -0.24 l-0.08 -0.24 l-0.04 -0.4 c0.04 -0.04 0.08 -0.48 0.12 -0.96 c0 -0.52 0.08 -1 0.12 -1.12 l0.08 -0.24 l-0.04 -0.16 l0.08 -0.64 c0.08 -0.24 0.08 -0.4 0.08 -0.52 c0 -0.2 -0.04 -0.28 -0.16 -0.28 s-0.52 -0.52 -0.6 -0.84 c-0.04 -0.12 -0.12 -0.16 -0.16 -0.16 c-0.16 0 -0.36 -0.56 -0.36 -0.8 l0 -0.16 c0 -0.08 -0.08 -0.32 -0.16 -0.56 l-0.16 -0.48 c0 -0.08 0.08 -0.12 0.16 -0.16 c0.16 -0.08 0.56 -0.16 0.96 -0.16 c1.2 -0.12 1.44 -0.2 1.44 -0.4 c0 -0.08 0.04 -0.12 0.08 -0.12 l0.04 0 l0.08 -0.04 l-0.04 -0.12 c0 -0.12 0.04 -0.2 0.12 -0.2 c0.04 0 0.08 -0.04 0.08 -0.08 l-0.04 -0.08 c-0.04 -0.04 -0.04 -0.12 -0.04 -0.2 c0 -0.16 0.04 -0.36 0.12 -0.36 l0.04 0 c0.12 0 0.24 -0.24 0.24 -0.44 l-0.04 -0.16 l0.08 0 c0.08 0 0.12 -0.04 0.12 -0.08 l0 -0.08 c0 -0.4 0.24 -1.76 0.36 -1.84 l0.04 -0.12 l0 -0.04 c0 -0.12 0.08 -0.44 0.32 -1.08 c0.12 -0.24 0.16 -0.44 0.16 -0.48 c0 -0.08 0.4 -1.16 0.48 -1.24 c0.08 -0.04 0.16 -0.28 0.2 -0.52 c0.04 -0.28 0.2 -0.8 0.36 -1.16 l0.24 -0.72 c0 -0.2 0.44 -1.36 0.6 -1.6 c0.04 -0.12 0.12 -0.32 0.12 -0.4 c0 -0.12 0 -0.16 -0.16 -0.16 l-0.28 0.04 c-0.24 0 -0.44 0 -0.48 -0.08 c0 -0.04 0.12 -0.08 0.28 -0.08 s0.32 -0.04 0.36 -0.12 c0 -0.04 0.08 -0.08 0.2 -0.08 l0.08 0 c0.04 0 0.08 -0.04 0.08 -0.08 s-0.04 -0.04 -0.08 -0.04 c-0.12 0 -0.32 0.04 -0.64 0.16 c-0.4 0.16 -0.88 0.32 -1.04 0.36 c-0.2 0.08 -0.28 0.12 -0.28 0.16 s0.04 0.04 0.2 0.04 l0.48 -0.04 l0.16 0.04 c0 0.04 -0.24 0.16 -0.52 0.28 c-0.24 0.08 -0.4 0.16 -0.48 0.16 c-0.04 0 -0.08 -0.04 -0.08 -0.08 l-0.04 -0.12 c0 -0.04 0.04 -0.08 0.08 -0.12 l0.08 -0.08 l0 -0.04 l-0.12 0.04 c-0.72 0.28 -1.08 0.48 -1.08 0.6 l0 0.08 c0 0.04 0 0.04 -0.04 0.04 l-0.08 0 c-0.08 0 -0.44 0.12 -0.8 0.32 c-0.32 0.2 -0.68 0.36 -0.76 0.36 c-0.2 0 -0.88 -0.52 -0.96 -0.76 c-0.04 -0.12 -0.16 -0.32 -0.28 -0.48 s-0.24 -0.44 -0.28 -0.68 s-0.12 -0.44 -0.2 -0.48 c-0.12 -0.08 -0.2 -0.28 -0.2 -0.48 c0 -0.16 0.04 -0.32 0.12 -0.44 c0.32 -0.36 1.16 -0.84 1.92 -1.04 c0.32 -0.12 0.64 -0.24 0.64 -0.28 c0.04 -0.04 0.24 -0.12 0.48 -0.16 s0.56 -0.16 0.64 -0.24 c0.12 -0.12 0.4 -0.2 0.6 -0.2 c0.36 0 0.52 -0.04 0.52 -0.16 l-0.04 -0.12 s0.04 -0.04 0.12 -0.04 l0.04 0 c0.12 0 0.32 -0.04 0.44 -0.12 c0.4 -0.2 1.24 -0.44 1.56 -0.44 l0.08 0 c0.08 0 0.12 0 0.16 -0.08 c0 -0.04 0.16 -0.08 0.32 -0.08 c0.24 0 0.28 -0.08 0.36 -0.44 c0.04 -0.24 0.08 -0.36 0.2 -0.36 s0.32 0.08 0.56 0.24 s0.48 0.24 0.68 0.24 c0.08 0 0.16 -0.04 0.2 -0.08 s0.88 -0.24 1.68 -0.36 c0.08 -0.04 0.32 -0.08 0.52 -0.12 l0.8 -0.12 c0.28 0 0.52 -0.04 0.56 -0.08 l0.12 -0.04 l0.24 0.08 l0.16 0.04 c0.04 0 0.04 0 0.04 -0.04 l0 -0.04 c0 -0.2 1.28 -0.48 2.2 -0.52 c0.4 0 0.72 -0.04 0.72 -0.08 c0 -0.12 0.88 -0.28 1.8 -0.32 c0.52 -0.04 1.04 -0.08 1.08 -0.12 c0.08 -0.08 0.2 -0.12 0.28 -0.12 c0.08 -0.04 1.4 -0.04 2.28 -0.04 l0.76 0 c0.08 0 0.12 0.04 0.12 0.04 c0 0.08 -0.12 0.16 -0.32 0.16 c-0.24 0 -0.36 0.08 -0.36 0.16 c0 0.04 0 0.08 0.08 0.12 l0.04 0 c0.04 0 0.04 -0.04 0.08 -0.08 l0.04 -0.08 c0.04 0 0.04 0 0.04 0.08 c0.04 0.04 0.08 0.08 0.12 0.08 l0.24 -0.04 c0.24 0 0.52 0.12 0.56 0.24 c0 0.08 0.08 0.16 0.16 0.16 c0.04 0.04 0.08 0.08 0.08 0.12 l0 0.08 c0 0.12 -0.2 0.2 -0.6 0.24 c-0.32 0.04 -0.56 0.12 -0.56 0.16 s0.08 0.04 0.12 0.04 l0.32 -0.04 c0.32 0 0.72 0.12 0.76 0.2 c0 0.08 -0.08 0.16 -0.24 0.16 c-0.12 0.04 -0.2 0.08 -0.2 0.16 c0 0.04 0.12 0.12 0.28 0.16 l-0.24 0 c-0.24 0 -0.56 -0.08 -0.72 -0.12 l-0.16 -0.04 l0.12 0.12 c0.08 0.08 0.16 0.16 0.16 0.2 l-0.64 0.24 c-0.16 0.08 -0.24 0.12 -0.24 0.16 l0.08 0 c0.16 0 0.24 0.08 0.24 0.16 s-0.08 0.16 -0.24 0.16 c-0.56 0.04 -1.28 0.08 -1.4 0.16 l-0.04 0 c-0.04 0 -0.08 -0.04 -0.08 -0.12 l0 -0.04 c0 -0.04 0 -0.04 -0.04 -0.04 l-0.08 0 c-0.04 0.04 -0.08 0.08 -0.08 0.12 l0 0.04 c0 0.04 -0.04 0.08 -0.12 0.08 l-0.08 0 c-0.24 0 -0.56 0.12 -0.56 0.24 s-0.32 0.2 -0.92 0.32 l-1.64 0.32 c-0.36 0.08 -0.96 0.16 -1.28 0.2 l-0.48 0.04 c-0.16 0 -0.2 -0.04 -0.28 -0.16 c-0.08 -0.08 -0.12 -0.16 -0.16 -0.16 l-0.04 0 c-0.04 0 -0.16 0 -0.28 -0.08 l-0.16 -0.08 c0 0.04 0.12 0.16 0.28 0.28 l0.2 0.16 l-0.36 0.2 l-0.08 -0.04 c0 -0.04 0.04 -0.12 0.12 -0.12 l0 -0.04 s-0.08 -0.04 -0.2 -0.04 c-0.16 0 -0.2 0 -0.2 0.04 s0 0.04 0.08 0.08 l0.04 0.04 c0 0.04 0 0.04 -0.04 0.04 l-0.24 -0.04 l-0.56 0 l-0.08 0.08 c0 0.08 0.12 0.12 0.2 0.12 l0.16 -0.04 l-0.08 0.12 c-0.12 0.12 -1.32 0.4 -1.8 0.4 c-0.24 0 -0.52 0.16 -0.52 0.28 l0 0.04 c0 0.04 0.12 0.04 0.24 0.04 l0.32 -0.04 l0.08 0.04 c0 0.04 -0.28 0.12 -0.68 0.24 c-0.24 0.08 -0.4 0.12 -0.4 0.2 l0.08 0.12 l-0.08 0.12 c-0.16 0.16 -0.2 0.32 -0.2 0.44 c0 0.08 0 0.12 0.08 0.2 l0.12 0.12 c0 0.04 -0.08 0.04 -0.16 0.04 c-0.16 0 -0.32 0.32 -0.6 1.16 c0 0.08 -0.16 0.44 -0.28 0.8 l-0.84 2.28 c-0.08 0.16 -0.16 0.4 -0.16 0.48 l0 0.04 c0 0.16 -0.12 0.56 -0.28 0.96 c-0.2 0.48 -0.36 0.96 -0.4 1.12 s-0.12 0.28 -0.16 0.28 s-0.04 0 -0.04 0.04 l0 0.08 c0 0.04 -0.08 0.32 -0.2 0.6 c-0.12 0.24 -0.2 0.48 -0.2 0.56 l0 0.04 c0 0.04 -0.08 0.4 -0.24 0.76 c-0.24 0.64 -0.4 1.24 -0.4 1.48 c0 0.08 0 0.16 0.04 0.16 l0.04 0 l0.04 -0.08 c0 -0.08 0.04 -0.08 0.12 -0.08 l0.08 0.04 l0.16 -0.08 c0.04 -0.04 0.08 -0.08 0.12 -0.08 l0.04 0.04 l0.16 -0.08 c0.12 -0.04 0.36 -0.12 0.6 -0.16 c0.24 0 0.64 -0.12 0.96 -0.24 c0.24 -0.08 0.36 -0.12 0.44 -0.12 s0.12 0.04 0.16 0.12 c0.04 0.04 0.08 0.08 0.12 0.08 l0 -0.04 c0 -0.12 0.56 -0.4 1.08 -0.48 l0.24 -0.04 l0.08 0.04 l-0.12 0.16 l-0.04 0.12 c0 0.04 0 0.04 0.08 0.04 c0.12 0 0.16 -0.04 0.16 -0.08 l0 -0.08 c0 -0.16 0.2 -0.28 0.4 -0.28 l0.2 0 c0.12 0 0.24 -0.04 0.28 -0.08 c0.12 -0.16 1.08 -0.4 1.84 -0.44 c0.2 0 0.44 -0.04 0.48 -0.08 c0.32 -0.24 2.84 -0.72 3.92 -0.72 c0.28 0 0.48 -0.04 0.48 -0.08 c0.04 -0.08 0.16 -0.12 0.24 -0.12 c0.12 0 0.2 0.04 0.2 0.12 c0 0.04 0.08 0.04 0.16 0.04 l0.4 -0.04 l0.08 0.04 l0 0.08 c0 0.04 0.04 0.08 0.08 0.08 s0.08 -0.04 0.08 -0.08 l0 -0.04 c0 -0.04 0.04 -0.08 0.12 -0.12 l0.08 0 c0.04 0 0.08 0.04 0.08 0.2 c0 0.2 0.04 0.24 0.16 0.24 c0.08 0 0.16 -0.04 0.16 -0.08 c0.04 -0.08 0.08 -0.12 0.12 -0.12 c0.08 0 0.2 0.12 0.28 0.28 l0.12 0.24 c0 0.08 -0.08 0.16 -0.16 0.28 s-0.12 0.16 -0.12 0.2 s0.04 0.08 0.08 0.12 c0.08 0.08 0.16 0.12 0.16 0.2 l0 0.08 c0 0.08 0 0.12 -0.04 0.12 l-0.08 -0.04 c-0.04 -0.04 -0.12 -0.08 -0.2 -0.08 l-0.04 0 c-0.04 0.04 -0.08 0.08 -0.08 0.12 s0.08 0.12 0.2 0.12 s0.16 0 0.16 0.04 l-0.04 0.08 c-0.08 0.08 -0.44 0.16 -0.72 0.16 c-0.16 0 -0.28 0 -0.28 -0.08 l0 -0.08 l-0.08 0.08 l-0.12 0.08 c-0.08 0 -0.12 -0.04 -0.24 -0.12 l-0.16 -0.12 l0.16 0.24 l-0.16 0.08 l0.08 0.12 c0 0.04 -0.04 0.04 -0.12 0.04 s-0.16 -0.08 -0.2 -0.2 l0 -0.16 l0.16 0.04 c0 -0.04 -0.12 -0.12 -0.28 -0.2 l-0.2 -0.04 l0.08 0.08 c0.04 0.12 0.08 0.2 0.08 0.28 c0 0.12 -0.04 0.2 -0.16 0.2 c-0.04 0 -0.2 0.12 -0.32 0.24 c-0.08 0.08 -0.2 0.12 -0.28 0.12 l-0.16 0 l0.08 0.2 c0 0.12 -0.12 0.16 -0.32 0.16 l-0.52 -0.08 l-0.08 0.04 l0.08 0.12 c0 0.04 -0.04 0.04 -0.12 0.04 l-0.32 0 c-0.28 0 -0.4 0.04 -0.44 0.16 l0 0.12 c0.04 0 0.08 -0.04 0.12 -0.08 l0.12 -0.08 l0.08 0.08 l0.04 0.08 c0 0.08 -0.16 0.08 -0.52 0.16 l-0.28 0.04 l0.08 -0.12 c0 -0.04 -0.08 -0.08 -0.28 -0.12 l-0.2 -0.04 c-0.2 0 -0.32 0.08 -0.32 0.2 c0 0.08 0 0.12 0.04 0.16 l0.04 0.08 c0 0.04 0 0.08 -0.04 0.08 s-0.12 -0.08 -0.2 -0.16 c0 -0.04 -0.04 -0.08 -0.08 -0.08 c-0.08 0 -0.16 0.04 -0.32 0.12 c-0.2 0.12 -0.56 0.28 -0.8 0.32 c-0.2 0.08 -0.32 0.12 -0.32 0.16 l0.12 0.12 c0 0.04 0 0.04 -0.04 0.04 l-0.52 -0.08 c-0.12 0 -0.2 0.04 -0.28 0.16 c-0.08 0.16 -0.2 0.24 -0.28 0.24 l-0.04 -0.04 l0.08 -0.24 l-0.08 -0.04 l-0.16 0.04 c-0.24 0.08 -0.36 0.12 -0.36 0.2 l0.12 0.2 c0 0.04 -0.04 0.08 -0.08 0.08 s-0.12 -0.04 -0.12 -0.12 c-0.04 -0.04 -0.12 -0.08 -0.2 -0.08 c-0.04 0 -0.08 0.04 -0.08 0.08 l0 0.08 c0 0.04 -0.08 0.08 -0.2 0.12 l-0.08 0 c-0.08 0 -0.12 -0.04 -0.12 -0.08 l0.04 -0.04 c0 -0.04 -0.04 -0.04 -0.08 -0.04 c-0.08 0 -0.2 0 -0.4 0.08 l-0.16 0.04 c0 0.04 0.04 0.04 0.12 0.04 l0.16 0.04 l0 0.04 c-0.04 0.04 -0.32 0.08 -0.6 0.08 l-0.44 0 l0.04 0.04 c0.08 0.04 0.12 0.04 0.12 0.08 s-0.08 0.08 -0.28 0.08 l-0.12 0 c-0.2 0 -0.32 0 -0.32 0.04 l0 0.04 c0 0.08 -0.08 0.12 -0.16 0.16 c-0.32 0.16 -2.16 0.56 -2.4 0.56 c-0.08 0 -0.12 0.04 -0.12 0.04 l0 0.04 c0 0.08 0.16 0.12 0.32 0.12 s0.28 -0.04 0.28 -0.08 s0.16 -0.08 0.4 -0.08 c0.28 0 0.4 0.04 0.4 0.08 s-0.2 0.12 -0.6 0.2 c-0.72 0.12 -1.68 0.4 -1.8 0.48 c-0.04 0.04 -0.16 0.08 -0.24 0.08 c-0.16 0 -0.36 0.56 -0.36 0.88 l0 0.2 c0 0.08 -0.04 0.12 -0.08 0.16 c-0.08 0.04 -0.12 0.24 -0.16 0.44 c0 0.2 -0.04 0.48 -0.08 0.6 l-0.04 0.28 l0 0.16 c0 0.08 -0.04 0.16 -0.08 0.2 c-0.08 0.08 -0.08 0.24 -0.08 0.32 l-0.04 0.88 c-0.2 1 -0.2 1.08 -0.24 1.6 l0 0.6 c0 0.64 0.04 1.24 0.12 1.56 c0.12 0.44 0.44 0.72 0.92 0.92 c0.28 0.12 1.52 0.2 2.32 0.2 c0.4 0 0.68 -0.04 0.68 -0.08 s0.24 -0.12 0.48 -0.2 l0.4 -0.08 c0.08 0 0.16 0 0.2 0.08 c0.08 0.04 0.08 0.08 0.12 0.08 l-0.04 -0.08 c0 -0.12 0.04 -0.2 0.16 -0.24 l0.08 0 c0.08 0 0.12 0 0.12 0.04 c0.04 0.04 0.12 0.08 0.2 0.08 s0.12 -0.04 0.12 -0.08 c0 -0.12 0.36 -0.28 0.56 -0.28 l0.16 0.04 l0.08 -0.08 c0 -0.04 0.12 -0.12 0.28 -0.12 c0.12 0 0.24 0 0.28 -0.04 c0.04 -0.08 0.16 -0.08 0.28 -0.12 c0.2 0 0.56 -0.12 0.92 -0.36 l0.12 -0.04 c0.08 0 0.16 0.04 0.24 0.08 l0.12 0.04 l0 -0.04 c0 -0.08 0.08 -0.16 0.24 -0.2 s0.32 -0.12 0.4 -0.2 c0.04 -0.04 0.16 -0.08 0.24 -0.08 l0.12 0 c0.2 0 0.32 -0.04 0.36 -0.16 c0.08 -0.12 0.16 -0.2 0.24 -0.2 s0.2 0.08 0.28 0.16 s0.12 0.16 0.16 0.16 l0 -0.16 c0.04 -0.24 0.12 -0.36 0.24 -0.36 c0.08 0 0.16 0.08 0.2 0.24 l0.08 0.16 l0.08 -0.16 c0.08 -0.2 0.2 -0.24 0.52 -0.24 s0.44 -0.08 0.52 -0.24 s0.24 -0.28 0.36 -0.32 s0.52 -0.16 0.84 -0.32 c0.4 -0.16 0.56 -0.24 0.64 -0.24 s0.08 0.04 0.08 0.12 l0 0.04 c0 0.04 0 0.04 -0.04 0.04 l-0.04 0 c-0.08 0 -0.16 0.04 -0.16 0.12 l0 0.08 c0 0.04 0 0.08 0.08 0.08 l0.36 -0.12 l0.24 -0.04 c0.12 0 0.2 0.04 0.32 0.16 c0.2 0.16 0.28 0.2 0.28 0.32 l-0.12 0.28 c-0.04 0.08 -0.04 0.16 -0.04 0.24 s0 0.16 0.04 0.2 l0.04 0.16 l-0.04 0.04 l-0.08 0.04 l0.04 0.08 l0.12 0.04 l0.16 -0.04 c0.04 -0.04 0.12 -0.08 0.2 -0.08 l0.04 0 c0 0.08 -0.12 0.12 -0.28 0.24 c-0.16 0.08 -0.24 0.12 -0.24 0.16 s0 0.04 0.08 0.08 l0.16 0.08 c0 0.04 -0.04 0.08 -0.16 0.16 s-0.28 0.16 -0.36 0.16 s-0.2 0.12 -0.28 0.24 c-0.04 0.08 -0.12 0.12 -0.16 0.12 l-0.04 0 s-0.16 0.08 -0.32 0.24 c-0.16 0.12 -0.32 0.24 -0.36 0.24 c-0.32 0 -1.08 0.24 -1.08 0.32 l0.16 0.08 c0.08 0 0.16 0.12 0.2 0.2 l0.04 0.12 c0 0.04 -0.04 0.08 -0.08 0.08 l-0.72 -0.12 c-0.12 0 -0.24 0.16 -0.24 0.24 l0.04 0.12 c0 0.12 -0.64 0.52 -0.84 0.52 c-0.08 0 -0.32 0.08 -0.48 0.2 s-0.32 0.2 -0.36 0.2 l-0.6 0.08 c-0.4 0.04 -0.56 0.12 -0.68 0.32 c-0.08 0.12 -0.12 0.16 -0.16 0.16 s-0.04 0 -0.08 -0.08 l-0.04 -0.2 l0 -0.08 c0 -0.04 0 -0.08 -0.04 -0.08 l-0.08 0.04 c-0.12 0.04 -0.24 0.04 -0.32 0.04 s-0.24 0.12 -0.36 0.28 l-0.16 0.16 l0 -0.04 c0 -0.12 -0.04 -0.2 -0.16 -0.2 c-0.08 0 -0.12 -0.04 -0.12 -0.08 l0 -0.04 c0 -0.04 -0.04 -0.08 -0.08 -0.08 s-0.04 0 -0.04 0.04 l0.04 0.2 c0 0.2 -0.2 0.48 -0.36 0.48 c-0.04 0 -0.2 0.12 -0.32 0.24 s-0.2 0.16 -0.24 0.16 c-0.08 0 -0.12 -0.08 -0.16 -0.28 s-0.04 -0.32 -0.12 -0.32 l-0.12 0.2 l-0.16 0.2 l-0.24 0 l-0.04 0.04 l0.08 0.16 c0 0.12 -0.24 0.2 -0.52 0.2 l-0.12 0 c-0.2 -0.04 -0.4 -0.12 -0.48 -0.2 l-0.08 -0.04 l0 0.16 c0 0.08 0 0.12 -0.04 0.12 c-0.08 0 -0.12 -0.04 -0.12 -0.08 s-0.08 -0.04 -0.16 -0.04 c-0.16 0 -0.44 0.04 -0.64 0.16 z M16.08 6.079999999999998 l0.08 -0.04 l-0.04 -0.04 l-0.12 0 l0 0.04 z M12.84 6.719999999999999 l0.08 -0.04 l-0.04 -0.04 c0 -0.04 -0.04 -0.04 -0.08 -0.04 c0 0 -0.04 0 -0.04 0.04 l0 0.04 z M21.08 7.200000000000003 l0.04 -0.04 l0.04 -0.12 l0 -0.08 c0 -0.08 -0.12 -0.12 -0.2 -0.16 c-0.12 0 -0.24 0.04 -0.32 0.12 l-0.08 0.08 l0.2 0 c0.12 0 0.24 0.08 0.24 0.12 z M11.2 7 c0.12 0 0.16 0 0.16 -0.04 l-0.24 -0.12 l-0.04 0.04 c-0.04 0 -0.04 0 -0.04 0.04 s0.08 0.08 0.16 0.08 z M10.4 7.200000000000003 c0.04 0 0.08 -0.04 0.08 -0.08 c-0.04 -0.08 -0.04 -0.12 -0.08 -0.12 s-0.08 0.04 -0.08 0.12 l0 0.04 z M18.72 7.200000000000003 l0 -0.04 l-0.08 -0.04 c-0.04 0 -0.08 0 -0.12 0.04 l-0.04 0.04 l0.24 0 z M20.08 7.359999999999999 l0 -0.04 c0 -0.04 -0.04 -0.08 -0.12 -0.12 c-0.08 0 -0.12 0 -0.2 -0.04 c-0.04 0 -0.08 0 -0.08 0.04 c0 0.08 0.24 0.16 0.36 0.16 l0.04 0 z M20.24 7.640000000000001 c0.12 0 0.28 -0.04 0.32 -0.12 l0.08 -0.08 c0.04 0 0.08 0 0.08 0.08 l0.04 0.08 l0.04 0 l0 -0.04 c0 -0.08 -0.2 -0.36 -0.36 -0.36 c-0.2 0 -0.36 0.16 -0.36 0.32 l0 0.04 c0 0.04 0.08 0.08 0.16 0.08 z M9.8 7.32 c0.04 0 0.08 0 0.08 -0.04 l-0.04 -0.04 l-0.12 0 l0 0.04 z M17.8 7.399999999999999 l0.12 -0.04 c0.04 -0.04 0.08 -0.04 0.08 -0.08 l0 -0.04 l-0.04 0 c-0.04 0 -0.08 0 -0.12 0.08 z M21.16 7.640000000000001 c0.08 0 0.12 -0.04 0.12 -0.04 l0 -0.04 l-0.2 -0.16 l-0.04 -0.04 c-0.04 0 -0.08 0.04 -0.08 0.12 c0 0.12 0.04 0.16 0.2 0.16 z M19.52 7.719999999999999 c0.04 0 0.12 -0.04 0.12 -0.08 l0 -0.08 l-0.24 0.12 c0 0.04 0.04 0.04 0.12 0.04 z M18.72 7.920000000000002 c0 -0.04 0 -0.12 -0.04 -0.16 l-0.04 0 l-0.04 0.04 l0.08 0.12 l0.04 0 z M17.64 8.04 c0.08 0 0.08 -0.04 0.08 -0.08 c0 -0.08 -0.04 -0.12 -0.08 -0.12 l-0.08 0.12 c0 0.04 0.04 0.08 0.08 0.08 z M18.4 7.920000000000002 l0 -0.04 l-0.08 -0.04 c-0.04 0 -0.08 0 -0.12 0.04 l-0.04 0.04 l0.24 0 z M15.76 8.04 l0 -0.04 c0 -0.04 -0.04 -0.08 -0.12 -0.12 l-0.08 -0.04 l0.04 0.08 c0.04 0.08 0.12 0.12 0.16 0.12 z M19.76 8.239999999999998 c0.16 -0.04 0.28 -0.08 0.28 -0.12 l0.04 -0.08 l0.04 0.08 l0.16 0.08 c0.12 0 0.24 -0.08 0.24 -0.2 l0 -0.04 c-0.04 -0.08 -0.08 -0.08 -0.16 -0.08 l-0.08 0 c-0.2 0.08 -0.32 0.12 -0.76 0.16 c-0.08 0 -0.12 0.04 -0.12 0.08 s0.16 0.12 0.36 0.12 z M14.8 8.16 l0.04 -0.04 l0 -0.04 l-0.08 -0.04 l-0.08 0.04 c0 0.04 0.04 0.08 0.12 0.08 z M17.96 8.52 c0.28 0 0.6 -0.12 0.68 -0.24 c0.04 -0.04 0.04 -0.08 0.04 -0.12 c0 -0.08 -0.04 -0.08 -0.12 -0.08 l-0.08 0 c-0.08 0 -0.16 0 -0.24 0.04 l-0.32 0.08 l-0.08 0 c-0.08 0 -0.16 0.04 -0.2 0.12 l-0.04 0.08 c0 0.04 0.04 0.04 0.16 0.08 z M4.68 8.36 c0.04 0 0.12 -0.04 0.2 -0.12 c0.04 -0.04 0.08 -0.04 0.08 -0.08 l-0.12 0 c-0.08 0 -0.16 0.04 -0.2 0.08 l0 0.04 c0 0.04 0 0.08 0.04 0.08 z M14.76 8.559999999999999 l0 -0.12 c0 -0.04 -0.08 -0.08 -0.12 -0.08 l-0.08 0.04 l0.04 0.04 c0.08 0.08 0.12 0.12 0.16 0.12 z M17.08 8.719999999999999 c0.12 0 0.24 -0.04 0.32 -0.12 l0.04 -0.04 c0 -0.12 -0.32 -0.2 -0.68 -0.2 c-0.2 0 -0.28 0 -0.28 0.04 l0.16 0.16 c0.12 0.08 0.28 0.16 0.44 0.16 z M16.28 8.84 l0.36 -0.04 c0.04 -0.04 0.04 -0.08 0.04 -0.12 s-0.04 -0.08 -0.08 -0.08 l-0.08 0.04 c-0.08 0 -0.16 0 -0.24 -0.08 c-0.04 -0.04 -0.12 -0.12 -0.2 -0.12 l-0.04 0.04 l0.08 0.16 l-0.04 0.04 l-0.08 0.04 l0 0.04 c0 0.04 0.12 0.08 0.28 0.08 z M13.32 8.760000000000002 l0.04 -0.04 l0 -0.04 l-0.16 0 c0 0.04 0.04 0.08 0.12 0.08 z M12.56 8.96 c0.04 0 0.08 -0.04 0.12 -0.08 c0 -0.08 0 -0.12 -0.04 -0.12 s-0.08 0.04 -0.08 0.12 l0 0.08 z M12.28 8.96 l0 -0.04 l-0.08 -0.04 l-0.08 0.04 c0 0.04 0.04 0.04 0.12 0.04 l0.04 0 z M11.52 9.16 l0 -0.04 l-0.08 -0.04 c-0.04 0 -0.08 0 -0.12 0.04 l-0.04 0.04 l0.24 0 z M14.28 9.48 l0 -0.04 c0 -0.04 -0.04 -0.04 -0.08 -0.04 l-0.12 0 l-0.04 0.04 c0 0.04 0.04 0.04 0.12 0.04 l0.12 0 z M10.92 10.2 c0.08 0 0.2 -0.04 0.24 -0.16 c0 -0.12 0.04 -0.24 0.08 -0.28 l0.08 -0.04 l-0.08 -0.04 c-0.16 0 -0.44 0.32 -0.44 0.44 l0 0.04 c0 0.04 0.04 0.04 0.12 0.04 z M15.44 9.920000000000002 c-0.16 0 -0.28 -0.04 -0.28 -0.04 c0 -0.04 0.08 -0.08 0.24 -0.12 l0.16 0 l0.08 0.04 l0 0.04 c0 0.04 -0.08 0.08 -0.2 0.08 z M12.8 10.399999999999999 c-0.12 0 -0.16 -0.04 -0.2 -0.08 c0 -0.08 0.08 -0.08 0.2 -0.08 l0.52 0 c0 0.04 -0.04 0.04 -0.12 0.08 c-0.16 0.04 -0.28 0.08 -0.4 0.08 z M11.16 10.760000000000002 l-0.08 0 c-0.08 0 -0.2 -0.04 -0.24 -0.08 l-0.08 -0.12 c0 -0.04 0.08 -0.08 0.16 -0.08 l0.08 0 l0.2 0.08 l0.08 0.12 c0 0.04 -0.04 0.04 -0.12 0.08 z M3.36 12.879999999999999 l-0.16 0 l0 -0.04 c0 -0.04 0.04 -0.04 0.08 -0.04 c0 0 0.04 0 0.04 0.04 z M8.76 14.239999999999998 c-0.04 0 -0.08 -0.04 -0.08 -0.08 c0 -0.12 0.16 -0.32 0.24 -0.32 c0.04 0 0.08 0.04 0.08 0.08 l-0.04 0.12 c-0.04 0.12 -0.12 0.2 -0.2 0.2 z M8.16 16.28 l-0.04 -0.2 c0 -0.08 0.04 -0.16 0.12 -0.16 l0.08 0 c0.04 0 0.04 0.04 0.04 0.08 l-0.08 0.16 c-0.04 0.08 -0.08 0.12 -0.12 0.12 z M7.96 16.84 l-0.04 -0.08 l0.04 -0.16 c0.04 -0.08 0.08 -0.16 0.12 -0.16 l0.04 0.12 c0 0.12 -0.08 0.28 -0.16 0.28 z M7.56 17.88 l0 -0.04 c0 -0.2 0.2 -0.8 0.32 -0.8 l0.04 0.04 c0 0.12 -0.08 0.36 -0.24 0.64 c-0.04 0.12 -0.08 0.16 -0.12 0.16 z M7.48 18.32 l-0.04 0 c-0.04 0 -0.08 0 -0.08 -0.04 s0 -0.12 0.04 -0.16 l0.08 -0.04 l0.04 0.08 l0 0.04 z M6.8 20.32 c-0.04 0 -0.08 -0.08 -0.08 -0.2 l0 -0.08 c0 -0.08 0.04 -0.12 0.08 -0.12 s0.08 0.04 0.08 0.12 l0 0.12 c0 0.12 -0.04 0.16 -0.08 0.16 z M5.56 20.88 c0.04 0 0.04 -0.04 0.08 -0.16 l0 -0.48 c-0.04 -0.12 -0.08 -0.2 -0.16 -0.2 c-0.04 0 -0.08 0.04 -0.16 0.2 l-0.04 0.12 c0 0.08 0.04 0.08 0.16 0.08 l0.12 0 l-0.04 0.08 l-0.16 0.08 l-0.12 -0.04 c0 0.04 0.04 0.08 0.12 0.16 c0.12 0.12 0.16 0.16 0.2 0.16 z M19.52 20.52 l-0.04 0 c-0.04 0 -0.04 -0.04 -0.08 -0.08 c0 -0.08 0 -0.08 0.04 -0.08 l0.04 0 c0.04 0.04 0.04 0.12 0.04 0.16 z M5.32 21.56 c0.04 0 0.04 -0.04 0.04 -0.08 c-0.04 -0.08 -0.08 -0.12 -0.16 -0.12 c-0.04 0 -0.04 0 -0.04 0.04 l0.04 0.08 z M6.24 22 c-0.04 0 -0.04 -0.04 -0.04 -0.08 l0 -0.08 c0.04 -0.04 0.04 -0.2 0.04 -0.28 c0.04 -0.12 0.08 -0.2 0.12 -0.2 s0.04 0.08 0.04 0.2 l0 0.12 c-0.04 0.16 -0.12 0.32 -0.16 0.32 z M12.32 21.68 l0.08 -0.04 l-0.04 -0.04 l-0.08 -0.04 l-0.04 0.08 z M20.36 21.76 l-0.04 0 c-0.08 0 -0.12 0 -0.12 -0.04 l0.08 -0.04 l0.08 0.04 l0 0.04 z M18.88 21.96 c0 -0.04 0 -0.12 -0.04 -0.16 l-0.04 0 l-0.04 0.04 l0.08 0.12 l0.04 0 z M18.52 22.08 c0.04 0 0.12 -0.04 0.12 -0.08 l0 -0.08 c0 -0.04 0 -0.04 -0.04 -0.04 c-0.08 0 -0.12 0.04 -0.16 0.12 c0 0.04 0 0.08 0.08 0.08 z M11.48 22 l0.08 -0.04 l-0.04 -0.04 c0 -0.04 -0.04 -0.04 -0.08 -0.04 c0 0 -0.04 0 -0.04 0.04 l0 0.04 z M19.4 22.4 c0.08 0 0.16 -0.04 0.16 -0.12 l0 -0.04 c0 -0.08 -0.08 -0.16 -0.12 -0.16 s-0.08 0.08 -0.16 0.16 l-0.04 0.08 c0 0.08 0.04 0.08 0.16 0.08 z M4.92 22.48 l0.08 -0.04 l0.04 -0.12 l0 -0.04 c0 -0.04 0 -0.04 -0.04 -0.04 l-0.08 0 c-0.04 0.04 -0.04 0.12 -0.04 0.16 z M17.4 22.72 c0.04 0 0.04 0 0.04 -0.04 l-0.12 -0.08 l-0.28 -0.08 c0 0.04 0.04 0.04 0.08 0.08 z M16.44 22.68 l0.12 -0.04 c0.04 -0.04 0.08 -0.04 0.08 -0.08 l0 -0.04 l-0.04 0 c-0.04 0 -0.08 0.04 -0.12 0.08 z M15.64 22.88 l0.16 -0.04 c0.08 -0.04 0.12 -0.08 0.12 -0.16 l-0.08 -0.04 l-0.08 0.08 z M15.28 23.32 l0.52 -0.08 c0.36 -0.12 0.44 -0.16 0.44 -0.24 l0 -0.08 c-0.04 -0.12 -0.04 -0.16 -0.08 -0.16 l-0.12 0.16 c-0.08 0.12 -0.28 0.2 -0.52 0.2 s-0.4 0.04 -0.4 0.12 c0.04 0.04 0.04 0.08 0.16 0.08 z M15.44 22.92 l0.08 -0.04 l0 -0.04 l-0.08 -0.04 l-0.08 0.04 l0 0.04 z M6.72 23.12 l0.08 -0.04 l0 -0.04 l-0.16 0 l0 0.04 z M14.92 23.4 l0.04 -0.08 l-0.08 -0.08 c-0.04 0 -0.04 0.04 -0.04 0.08 c0.04 0.04 0.04 0.08 0.08 0.08 z M13.84 23.52 l0 -0.04 l-0.12 -0.12 l-0.08 0 l0.04 0.04 c0.04 0.08 0.12 0.12 0.16 0.12 z M14.28 23.56 l0.28 -0.08 c0 -0.04 -0.12 -0.04 -0.32 -0.04 c-0.16 0 -0.28 0.04 -0.28 0.08 s0.08 0.04 0.2 0.04 l0.12 0 z M17.68 23.6 l-0.04 0 l-0.08 -0.12 l0.04 -0.04 s0.04 0 0.04 0.04 c0.04 0.04 0.04 0.08 0.04 0.12 z M13.8 23.8 l0 -0.04 l-0.04 -0.08 s0 -0.04 -0.04 -0.04 l0 0.12 l0.04 0.04 l0.04 0 z M16.12 23.92 c-0.04 0 -0.04 0 -0.04 -0.04 l0 -0.04 c0 -0.04 0.12 -0.08 0.24 -0.08 l0.2 0 z M12.72 23.96 l0.08 -0.04 l0 -0.04 c-0.08 -0.04 -0.2 -0.08 -0.28 -0.08 l-0.08 0 l0.04 0.04 c0.04 0.08 0.16 0.12 0.24 0.12 z M11.56 24.240000000000002 c0.08 0 0.12 -0.04 0.12 -0.08 c-0.04 -0.08 -0.16 -0.12 -0.24 -0.12 s-0.16 0.04 -0.16 0.08 l0.04 0.04 c0.04 0.04 0.16 0.08 0.24 0.08 z M12.8 24.36 l0.08 -0.12 l0 -0.08 c-0.04 0 -0.08 0.04 -0.12 0.08 c0 0.08 0 0.12 0.04 0.12 z M11.04 24.48 c0.04 0 0.08 -0.08 0.08 -0.12 c-0.04 -0.04 -0.08 -0.12 -0.16 -0.12 c-0.04 0 -0.08 0.08 -0.08 0.12 c0.04 0.04 0.08 0.12 0.16 0.12 z M10.08 24.560000000000002 c0.12 0 0.24 -0.04 0.28 -0.08 c0 -0.08 -0.04 -0.12 -0.12 -0.12 s-0.16 0.04 -0.24 0.12 l-0.08 0.08 l0.16 0 z M10.76 24.439999999999998 l0 -0.04 l-0.08 -0.04 c-0.04 0 -0.08 0 -0.12 0.04 l-0.04 0.04 l0.24 0 z M12.28 24.560000000000002 c0.12 0 0.16 0 0.16 -0.04 l-0.04 -0.04 l-0.24 0 l-0.04 0.04 z M13.4 24.8 l-0.08 0 c-0.08 0 -0.12 0 -0.16 -0.04 c0 -0.04 0.08 -0.08 0.2 -0.08 s0.2 0 0.2 0.04 z M9.96 24.759999999999998 l-0.04 -0.04 l-0.08 -0.04 s-0.04 0 -0.04 0.04 l0 0.04 l0.16 0 z M12.28 25.08 c-0.08 0 -0.16 -0.04 -0.2 -0.08 c0 -0.08 0.04 -0.12 0.08 -0.12 s0.16 0.04 0.2 0.12 l0 0.04 z M12.88 25.2 l-0.08 -0.04 l0.04 -0.08 l0.08 0.04 l0.04 0.04 z M9.6 25.2 c0.08 0 0.12 -0.04 0.12 -0.04 l0 -0.04 l-0.08 -0.04 l-0.16 0.08 z M8.72 26.4 l-0.08 0 c-0.04 0 -0.08 -0.04 -0.08 -0.08 s0.08 -0.08 0.2 -0.08 s0.2 -0.04 0.2 -0.08 l-0.04 -0.08 c0 -0.08 0.16 -0.12 0.36 -0.12 l0.36 0.04 c0.08 0 0.12 -0.04 0.12 -0.08 c0.04 -0.08 0.04 -0.08 0.08 -0.08 l0.04 0.04 c0 0.04 0.04 0.08 0.08 0.08 l0.16 -0.04 c0.08 0 0.16 0 0.16 0.04 s-0.36 0.12 -0.72 0.2 s-0.76 0.2 -0.84 0.24 z M7.72 26.64 c-0.08 0 -0.16 -0.04 -0.2 -0.12 l-0.04 -0.04 c0 -0.04 0.04 -0.04 0.12 -0.04 s0.16 0.04 0.16 0.08 l0 0.04 c0 0.04 0 0.08 -0.04 0.08 z M5.2 27.16 c0.12 0 0.2 -0.08 0.28 -0.16 l0.08 -0.16 c0 -0.04 0 -0.04 -0.04 -0.04 l-0.08 0 l-0.52 0.08 l-0.2 0.08 l0.16 0.08 z M4.52 27.16 l0.08 -0.04 l0 -0.04 l-0.08 -0.04 l-0.08 0.04 c0 0.04 0.04 0.08 0.08 0.08 z M3.52 27.759999999999998 l0 -0.04 c0 -0.04 -0.04 -0.04 -0.08 -0.04 l-0.16 0.04 c0 0.04 0.04 0.04 0.12 0.04 l0.12 0 z M3.48 27.96 l0 -0.04 l-0.08 -0.04 l-0.08 0.04 c0 0.04 0.04 0.04 0.12 0.04 l0.04 0 z M3.08 28.96 l0.04 -0.12 l0 -0.04 l-0.04 -0.08 l-0.08 0.04 c-0.04 0.04 -0.04 0.12 -0.04 0.16 s0.04 0.04 0.08 0.04 l0.04 0 z M4.28 29 c-0.04 0 -0.08 -0.04 -0.08 -0.08 c0 -0.08 0 -0.12 0.08 -0.12 c0.04 0 0.08 0.04 0.08 0.12 z M4.2 29.64 c-0.08 0 -0.12 -0.04 -0.16 -0.12 l0.08 -0.16 l0.04 0 c0.04 0 0.08 0.04 0.08 0.12 l0 0.08 c0 0.04 0 0.08 -0.04 0.08 z M3.72 32.4 c-0.08 0 -0.12 -0.08 -0.12 -0.2 c0 -0.16 0.04 -0.32 0.08 -0.4 c0 -0.08 0 -0.12 0.04 -0.12 l0.04 0.12 l0.04 0.32 c0 0.16 -0.04 0.28 -0.08 0.28 z M3.48 33.32 l-0.04 0 l0 -0.08 c0 -0.2 0.08 -0.72 0.16 -0.72 s0.08 0.08 0.08 0.24 c0 0.12 0 0.28 -0.08 0.4 z M19 34.480000000000004 c-0.08 0 -0.16 -0.04 -0.16 -0.08 l0 -0.04 c0 -0.04 0.12 -0.08 0.24 -0.08 s0.2 0 0.2 0.04 l-0.04 0.08 c-0.08 0.04 -0.16 0.08 -0.24 0.08 z M16.4 36.12 c0.04 0 0.08 -0.04 0.12 -0.08 l0.16 -0.04 l0.12 0 c0.2 0 0.64 -0.16 0.64 -0.28 l0 -0.04 l0.04 -0.04 l0.04 0.04 l0.08 0 c0.08 0 0.2 -0.04 0.24 -0.08 c0.12 -0.08 0.32 -0.2 0.48 -0.2 c0.2 -0.04 0.24 -0.08 0.24 -0.2 l0 -0.12 c-0.04 -0.16 -0.08 -0.2 -0.16 -0.2 l-0.08 0 c-0.08 0 -0.2 0 -0.24 -0.08 l-0.04 -0.08 c0 -0.04 0.12 -0.08 0.4 -0.2 l0.08 -0.08 l-0.04 -0.04 l-0.12 0 c-0.16 0 -0.48 0.24 -0.52 0.48 c-0.04 0.12 -0.08 0.2 -0.16 0.2 l-0.12 0 l-0.2 0.04 l-0.04 0.08 l0.12 0 c0.12 0 0.16 0.04 0.16 0.08 c0 0.08 -0.08 0.2 -0.28 0.28 s-0.36 0.2 -0.36 0.24 c-0.04 0.08 -0.16 0.12 -0.28 0.12 l-0.08 0 c-0.12 0 -0.2 0.04 -0.2 0.12 l0 0.08 z M17.84 35.32 c-0.08 0 -0.08 0 -0.08 -0.04 l0.04 -0.12 c0.04 -0.08 0.16 -0.16 0.24 -0.16 c0.12 0 0.24 0.04 0.28 0.08 l0 0.04 c0 0.12 -0.24 0.2 -0.48 0.2 z M18 35.2 l0.08 -0.04 l0 -0.04 l-0.16 0 c0 0.04 0.04 0.08 0.08 0.08 z M3.64 35.72 c-0.04 0 -0.08 -0.08 -0.08 -0.2 l-0.04 -0.16 l0.04 -0.04 c0.08 0 0.12 0.08 0.12 0.2 s-0.04 0.2 -0.04 0.2 z M16.32 35.68 c0.04 0 0.04 -0.04 0.04 -0.12 l0 -0.24 l-0.08 0 l-0.12 0.04 c-0.04 0.04 -0.08 0.08 -0.08 0.12 l0.08 0.12 z M9.44 36.12 c0.04 0 0.04 -0.04 0.08 -0.08 l0 -0.12 c-0.04 0 -0.08 0.04 -0.12 0.12 c0 0.04 0 0.08 0.04 0.08 z M17.92 36.72 c-0.04 0 -0.08 0 -0.08 -0.04 l0.04 -0.2 l-0.08 -0.28 c0 -0.04 0.04 -0.08 0.16 -0.08 s0.2 0.08 0.2 0.12 l-0.12 0.04 l-0.08 0 c-0.04 0 -0.04 0 -0.04 0.04 l0 0.04 c0 0.04 0.04 0.08 0.12 0.08 l0.48 -0.08 l-0.12 0.12 c-0.16 0.16 -0.36 0.24 -0.48 0.24 z M15.92 36.44 c0.04 0 0.08 -0.04 0.08 -0.08 l0 -0.04 c0 -0.08 -0.04 -0.08 -0.08 -0.12 c-0.04 0 -0.04 -0.04 -0.04 -0.04 c-0.04 0 -0.04 0 -0.04 0.04 l0 0.08 c0.04 0.12 0.04 0.16 0.08 0.16 z M15.56 36.36 l0.04 -0.04 l0 -0.04 l-0.08 -0.04 l-0.08 0.04 c0 0.04 0.04 0.08 0.12 0.08 z M13.76 36.72 l0 -0.04 l-0.04 -0.08 c0 -0.04 -0.04 -0.04 -0.04 -0.04 l-0.04 0.04 l0.08 0.12 l0.04 0 z M13.08 36.88 c0.08 0 0.12 -0.08 0.16 -0.12 c0 -0.04 -0.04 -0.12 -0.08 -0.12 s-0.12 0.08 -0.12 0.12 l0 0.04 c0 0.04 0 0.08 0.04 0.08 z M16.92 37.08 c-0.08 0 -0.16 -0.08 -0.2 -0.16 l0 -0.04 c0 -0.08 0.16 -0.16 0.36 -0.16 c0.08 0 0.2 0.04 0.24 0.08 l0.08 0.04 l0.04 -0.08 l0.16 -0.12 c0.04 0 0.08 0.04 0.12 0.12 c0 0.08 -0.6 0.32 -0.8 0.32 z M13.88 36.96 l0.16 -0.04 l-0.04 0 c0 -0.04 -0.04 -0.04 -0.08 -0.04 l-0.12 0 l-0.04 0.04 c0 0.04 0.04 0.04 0.12 0.04 z M12.32 37.08 l0.08 -0.04 l0 -0.04 l-0.08 -0.04 l-0.08 0.04 l0 0.04 z M15.32 37.2 c0.12 -0.04 0.2 -0.08 0.2 -0.12 s-0.04 -0.04 -0.08 -0.04 l-0.16 0 c-0.16 0.04 -0.24 0.08 -0.24 0.12 s0.08 0.04 0.16 0.04 l0.12 0 z M11.88 37.6 c0.16 0 0.32 -0.04 0.44 -0.12 l0.08 -0.08 l0.08 0.08 l0.04 0.08 c0.04 0 0.04 -0.04 0.04 -0.12 l0 -0.04 c0 -0.08 -0.08 -0.12 -0.16 -0.12 c-0.12 0 -0.2 0.04 -0.24 0.08 c0 0.08 -0.12 0.12 -0.24 0.12 l-0.16 0.04 l0 0.04 c0 0.04 0.08 0.04 0.12 0.04 z M14.96 37.36 l0 -0.04 l-0.08 -0.04 l-0.08 0.04 c0 0.04 0.04 0.04 0.08 0.04 l0.08 0 z M14.08 37.88 c0.2 0 0.76 -0.12 0.84 -0.2 l0 -0.04 s-0.04 -0.04 -0.12 -0.04 s-0.12 -0.04 -0.12 -0.08 l0 -0.04 c0 -0.04 -0.12 -0.12 -0.32 -0.12 s-0.4 0.08 -0.4 0.12 l0 0.04 c0 0.04 0.04 0.04 0.12 0.04 l0.4 -0.04 l-0.2 0.12 c-0.16 0.08 -0.28 0.16 -0.28 0.2 z M13.48 37.88 l0.08 -0.04 l0 -0.04 c0 -0.08 -0.08 -0.12 -0.2 -0.12 c-0.04 0 -0.08 0 -0.08 0.04 l0.04 0.08 z M13.08 38.12 c0.04 0 0.04 -0.08 0.04 -0.16 l0 -0.04 c0 -0.08 -0.04 -0.12 -0.12 -0.12 c-0.04 0 -0.08 0 -0.08 0.04 l0.04 0.12 z M12.8 38.08 c0 -0.04 0 -0.12 -0.04 -0.16 l-0.04 0 c-0.04 0 -0.04 0.04 -0.04 0.08 c0.04 0.04 0.04 0.08 0.08 0.08 l0.04 0 z M12.52 38.12 l0.08 -0.04 l-0.04 -0.04 c0 -0.04 -0.04 -0.04 -0.08 -0.04 c0 0 -0.04 0 -0.04 0.04 l0 0.04 z M12 38.16 c0 -0.04 0 -0.08 -0.04 -0.12 c-0.04 0 -0.04 -0.04 -0.04 -0.04 c-0.04 0 -0.04 0.04 -0.04 0.12 l0.08 0.04 l0.04 0 z M13.44 38.2 c0.08 0 0.12 -0.04 0.12 -0.08 l-0.08 -0.08 l-0.08 0.04 c-0.08 0 -0.16 0.08 -0.16 0.08 c0.04 0.04 0.08 0.04 0.2 0.04 z M9.36 38.2 l0.04 -0.04 l0 -0.04 l-0.16 0 c0 0.04 0.04 0.08 0.12 0.08 z M11.36 38.6 c0.04 0 0.08 -0.04 0.08 -0.08 l0 -0.04 c0 -0.04 -0.04 -0.08 -0.08 -0.08 s-0.08 0.04 -0.08 0.12 c0.04 0.04 0.04 0.08 0.08 0.08 z M10.52 38.92 c0.12 0 0.16 0 0.16 -0.04 l-0.16 -0.12 c-0.08 -0.08 -0.2 -0.12 -0.28 -0.12 c0 0 -0.04 0 -0.04 0.04 l-0.04 0.08 c0 0.08 0.16 0.16 0.36 0.16 z M6.92 39.04 c0.04 0 0.08 -0.04 0.08 -0.12 l0 -0.04 s-0.04 -0.04 -0.12 -0.04 l-0.08 0.04 l0 0.04 c0.04 0.08 0.12 0.12 0.12 0.12 z M7.48 38.92 l0.08 -0.04 l-0.04 0 c0 -0.04 -0.04 -0.04 -0.08 -0.04 c0 0 -0.04 0 -0.04 0.04 z M8.84 39.04 c0.04 0 0.08 0 0.08 -0.04 l-0.08 -0.08 l-0.08 0.04 l0 0.04 z M10.2 39.12 l-0.04 -0.04 c0 -0.04 -0.04 -0.04 -0.08 -0.04 c0 0 -0.04 0 -0.04 0.04 l0 0.04 l0.16 0 z M11.16 39.24 c-0.04 0 -0.08 -0.04 -0.08 -0.08 l0.16 0 l0 0.04 z M8.8 39.44 c0.16 0 0.28 -0.04 0.28 -0.12 l0 -0.08 l-0.2 0.04 l-0.2 -0.04 l-0.08 -0.04 l-0.04 0.08 c0 0.12 0.08 0.16 0.24 0.16 z M8.04 39.44 l0.12 -0.04 c0.04 -0.04 0.08 -0.08 0.08 -0.12 l0 -0.04 l-0.04 0 c-0.04 0 -0.08 0.04 -0.12 0.08 z M9.08 39.72 l-0.04 -0.04 l-0.24 0 l-0.04 0.04 l0.32 0 z M21.787999999999997 40.56 c-0.04 0 -0.08 -0.04 -0.12 -0.08 l-0.16 -0.08 l-0.24 0.08 l-0.2 0.04 c-0.04 0 -0.04 0 -0.04 -0.08 l0 -0.04 c0 -0.04 0 -0.08 -0.08 -0.08 l-0.4 0.08 c-0.08 0 -0.08 -0.04 -0.08 -0.08 l0 -0.04 c0 -0.04 0 -0.04 -0.04 -0.04 l-0.12 0 c-0.04 0 -0.08 -0.04 -0.12 -0.08 c-0.04 -0.08 -0.24 -0.2 -0.4 -0.28 c-0.2 -0.04 -0.36 -0.16 -0.4 -0.24 c-0.04 -0.12 -0.12 -0.2 -0.16 -0.24 c-0.12 -0.04 -0.2 -0.48 -0.2 -0.84 c0 -0.2 0.04 -0.4 0.12 -0.4 c0.04 0 0.08 -0.12 0.08 -0.24 c-0.04 -0.12 -0.08 -0.16 -0.12 -0.16 l-0.08 0 l0.16 -0.4 l-0.08 -0.08 c-0.08 -0.04 -0.12 -0.08 -0.12 -0.12 s0.04 -0.04 0.08 -0.04 l0.08 0 c0.08 0 0.12 -0.04 0.12 -0.08 c-0.04 -0.04 -0.04 -0.08 -0.08 -0.08 l-0.04 0 c-0.04 0 -0.08 -0.08 -0.08 -0.16 s0.04 -0.16 0.08 -0.2 c0.08 -0.08 0.08 -0.12 0.08 -0.2 l-0.04 -0.16 l0 -0.48 c0 -0.12 0.04 -0.2 0.12 -0.24 l0.08 -0.04 l-0.04 -0.04 l0 -0.08 l0.04 -0.12 l0.04 -0.08 l-0.16 0 c-0.04 0 -0.08 0 -0.08 -0.04 c0 -0.08 0.04 -0.2 0.16 -0.36 s0.16 -0.28 0.16 -0.36 s-0.04 -0.16 -0.16 -0.24 l-0.08 -0.08 l0.28 -0.08 c0.04 0 0.04 -0.04 0.04 -0.08 s-0.04 -0.08 -0.12 -0.08 l-0.04 0 c-0.04 0 -0.04 -0.04 -0.04 -0.08 s0.04 -0.16 0.12 -0.24 c0.08 -0.12 0.12 -0.28 0.12 -0.4 l0 -0.12 c0 -0.08 0 -0.12 0.04 -0.16 l0.08 -0.12 c0 -0.04 -0.04 -0.08 -0.12 -0.08 l-0.2 0.08 l-0.04 -0.04 l0.04 -0.08 c0.04 -0.08 0.12 -0.12 0.2 -0.12 l0.04 0 l0.04 -0.08 l-0.08 -0.44 c0 -0.04 0.04 -0.08 0.08 -0.08 s0.08 -0.04 0.08 -0.08 l0 -0.08 l0.04 -0.12 c0.08 -0.04 0.08 -0.08 0.08 -0.12 c0 -0.08 0 -0.2 -0.08 -0.32 c-0.04 -0.12 -0.04 -0.24 -0.04 -0.28 c0 -0.08 0 -0.12 0.04 -0.12 s0.04 -0.04 0.04 -0.08 l0 -0.08 l0.08 -0.44 l0.08 -0.24 c0 -0.08 -0.04 -0.08 -0.08 -0.08 c-0.08 -0.04 -0.12 -0.08 -0.12 -0.12 l0 -0.04 s0.04 -0.04 0.12 -0.04 l0.08 0 c0.04 0 0.08 0 0.08 -0.04 l0 -0.04 l-0.12 -0.08 l0.04 -0.12 c0.08 -0.12 0.12 -0.32 0.16 -0.48 c0 -0.56 0.08 -1.16 0.16 -1.16 c0.04 0 0.04 0 0.04 -0.04 l-0.08 -0.2 l-0.04 -0.16 c0 -0.04 0 -0.08 0.04 -0.12 s0.08 -0.08 0.08 -0.12 l-0.04 -0.16 l0.08 -0.28 l-0.16 0.04 l0 -0.04 c0 -0.12 0.04 -0.32 0.16 -0.52 c0.08 -0.16 0.12 -0.28 0.12 -0.36 l-0.04 -0.12 c0 -0.04 0 -0.12 0.04 -0.16 l0.08 -0.12 l-0.08 -0.12 l-0.04 -0.08 c0 -0.04 0 -0.08 0.04 -0.08 c0.08 -0.04 0.12 -0.12 0.12 -0.16 l-0.08 -0.24 l0.04 0 c0.04 0 0.08 -0.04 0.08 -0.12 l-0.12 -0.64 c0 -0.16 0.08 -0.32 0.2 -0.36 c0.08 -0.04 0.12 -0.08 0.12 -0.12 l-0.04 -0.04 c-0.12 -0.04 -0.16 -0.12 -0.16 -0.24 c0 -0.16 0.12 -0.32 0.24 -0.32 l0.12 -0.04 l-0.12 -0.08 c-0.12 -0.04 -0.16 -0.12 -0.16 -0.2 s0.04 -0.16 0.12 -0.16 s0.16 -0.04 0.16 -0.16 l0 -0.04 c0 -0.08 0 -0.2 0.04 -0.24 l0.04 -0.08 c0 -0.04 -0.04 -0.08 -0.12 -0.12 s-0.12 -0.16 -0.12 -0.2 c0 -0.12 0.04 -0.16 0.16 -0.2 c0.12 0 0.16 -0.12 0.16 -0.24 c-0.04 -0.12 -0.08 -0.2 -0.12 -0.2 l-0.08 -0.04 l0.08 -0.08 c0.12 -0.12 0.2 -0.6 0.2 -0.88 c0 -0.08 0 -0.12 -0.04 -0.12 l-0.04 0.04 l-0.08 -0.04 c0 -0.08 0.08 -0.12 0.12 -0.12 c0.08 0 0.12 -0.04 0.12 -0.08 l0 -0.04 c0 -0.04 -0.04 -0.08 -0.08 -0.08 s-0.08 -0.04 -0.08 -0.08 c0 -0.12 0.08 -0.24 0.16 -0.32 l0.04 -0.12 c0 -0.04 0 -0.12 -0.04 -0.16 l-0.04 -0.12 l0.04 -0.04 c0.04 0 0.08 -0.08 0.08 -0.16 l-0.08 -0.56 c0 -0.08 0.04 -0.16 0.08 -0.2 s0.08 -0.08 0.08 -0.12 l-0.08 -0.24 l0.16 0 l-0.08 -0.28 l0.08 -0.28 c0.04 -0.08 0.08 -0.24 0.08 -0.36 l-0.04 -0.48 c0 -0.32 0.08 -0.68 0.24 -0.76 l0.04 -0.04 l-0.08 0 c-0.04 0 -0.04 0 -0.04 -0.04 c0 -0.08 0 -0.16 0.08 -0.28 l0.08 -0.28 c0 -0.08 -0.04 -0.08 -0.08 -0.08 l-0.04 0 l0.32 -0.44 c0 -0.04 -0.04 -0.04 -0.12 -0.04 l-0.12 0.04 l0.08 -0.16 c0.04 -0.04 0.08 -0.12 0.08 -0.24 l0 -0.08 l0.08 -0.32 c0.08 -0.08 0.12 -0.36 0.12 -0.6 c0 -0.28 0.04 -0.56 0.08 -0.64 l0.04 -0.12 l-0.08 -0.2 l0.08 -0.08 l0.08 -0.16 l-0.04 -0.16 c0 -0.08 0.04 -0.12 0.08 -0.16 l0.08 -0.08 l-0.16 -0.32 l0.04 -0.2 c0.04 -0.16 0.08 -0.44 0.08 -0.64 c0 -0.12 0 -0.2 -0.04 -0.2 c-0.12 0.04 -1 0.44 -1.4 0.68 c-0.36 0.2 -0.6 0.28 -0.84 0.28 c-0.08 0 -0.16 0 -0.24 -0.04 l-0.4 0.04 l-0.12 0.08 l0.04 0.04 l0.16 -0.04 c0.16 0 0.2 0 0.2 0.04 l-0.08 0.16 l0.08 0.16 c0 0.08 -0.08 0.12 -0.16 0.16 c-0.12 0.04 -0.44 0.28 -0.72 0.48 c-0.28 0.24 -0.64 0.44 -0.84 0.48 c-0.32 0.08 -0.4 0.12 -0.4 0.16 l0.04 0.16 c0 0.04 -0.04 0.08 -0.08 0.12 l-0.2 0.16 c-0.04 0.12 -0.68 0.68 -0.76 0.68 c-0.04 0 -0.48 0.44 -1.24 1.2 c-0.16 0.16 -0.24 0.28 -0.32 0.28 l-0.04 -0.04 l-0.08 -0.04 c-0.04 0 -0.04 0 -0.04 0.08 l0 0.12 l0.12 -0.08 l-0.04 0.12 c-0.08 0.12 -0.2 0.2 -0.28 0.2 s-0.16 0.08 -0.2 0.12 c-0.04 0.08 -0.12 0.16 -0.24 0.24 c-0.08 0.04 -0.16 0.08 -0.16 0.12 l0 0.04 c0 0.04 0 0.08 -0.04 0.08 l-0.24 0.36 c-0.12 0.2 -0.24 0.4 -0.32 0.44 c-0.04 0.04 -0.08 0.12 -0.08 0.2 l0.04 0.04 l0.2 -0.16 l-0.04 0.08 c-0.04 0.08 -0.16 0.16 -0.24 0.16 s-0.24 0.28 -0.4 0.64 s-0.28 0.76 -0.28 1.08 c0 0.24 0.08 0.44 0.2 0.52 c0.08 0.04 0.12 0.12 0.12 0.16 l0 0.08 l0.08 0 c0.04 0 0.12 0.08 0.12 0.16 s0.16 0.2 0.28 0.24 s0.2 0.08 0.2 0.16 l-0.08 0.2 l0.08 -0.08 c0.08 -0.08 0.16 -0.16 0.24 -0.16 c0.04 0 0.08 0.04 0.08 0.08 l0 0.04 c0 0.08 0.04 0.2 0.12 0.24 s0.12 0.08 0.12 0.12 l-0.08 0.2 l0.04 0.16 c0 0.04 -0.08 0.08 -0.28 0.08 l-0.28 0.04 l-0.28 -0.08 l-0.12 0.04 c-0.4 0 -1.64 -0.84 -2.36 -1.64 c-0.56 -0.64 -0.84 -1.2 -0.96 -1.96 l0 -0.24 c0 -0.28 0.04 -0.48 0.28 -1 c0.16 -0.4 0.36 -0.8 0.44 -0.88 s0.16 -0.2 0.16 -0.28 s0.28 -0.48 0.6 -0.8 c0.08 -0.08 0.12 -0.16 0.12 -0.24 l0 -0.04 c0 -0.08 0.04 -0.16 0.12 -0.16 c0.16 0 0.36 -0.28 0.36 -0.4 l0 -0.04 c0 -0.04 0 -0.08 0.08 -0.08 s0.4 -0.28 0.68 -0.64 l0.6 -0.6 l0.04 0 c0.04 0 0.08 -0.08 0.16 -0.16 c0.08 -0.12 0.2 -0.24 0.28 -0.24 c0.04 0 0.12 -0.04 0.12 -0.08 c0.04 -0.12 0.48 -0.52 0.64 -0.6 c0.08 -0.04 0.12 -0.12 0.12 -0.16 l0 -0.04 c0 -0.08 0.12 -0.2 0.24 -0.24 s0.32 -0.16 0.36 -0.28 l0.28 -0.2 c0.32 -0.08 0.52 -0.24 0.56 -0.36 c0 -0.08 0.12 -0.2 0.28 -0.32 l0.24 -0.12 c0.04 0 0.08 0 0.12 0.04 l0.08 0.04 l0 -0.08 c0 -0.16 1.28 -1.08 1.6 -1.12 c0.08 -0.04 0.2 -0.08 0.28 -0.16 l0.08 -0.08 l0 0.04 c0.04 0 0.12 -0.08 0.2 -0.16 c0.08 -0.12 0.32 -0.24 0.56 -0.32 c0.2 -0.04 0.6 -0.2 0.8 -0.32 c0.68 -0.36 1.36 -0.6 1.48 -0.6 l0.04 0 c0 0.04 0.04 0.04 0.08 0.04 l0.08 0 l-0.08 -0.16 l-0.04 -0.12 c0 -0.04 0.04 -0.08 0.12 -0.12 l0.16 -0.04 l0.08 0.04 c0.04 0 0.2 -0.08 0.32 -0.2 c0.2 -0.24 0.36 -0.28 0.72 -0.32 c0.24 -0.04 0.52 -0.12 0.6 -0.16 c0.08 -0.08 0.12 -0.08 0.2 -0.08 l0.16 0.08 l0 -0.08 c0.04 -0.04 0.2 -0.16 0.44 -0.2 c0.2 -0.04 0.52 -0.16 0.64 -0.2 c0.4 -0.2 1.48 -0.52 2.36 -0.68 l1.16 -0.28 c0.04 0 0.08 0 0.08 0.04 s0 0.04 0.04 0.04 l0.24 -0.12 l0.28 0.04 l0.2 -0.04 c0.56 -0.12 1.04 -0.2 1.32 -0.2 c0.12 0 0.2 0 0.24 0.04 s0.08 0.04 0.2 0.04 l0.28 -0.04 c0.36 -0.04 0.8 -0.08 1.16 -0.08 c0.32 0 0.6 0.04 0.76 0.08 l0.56 0.04 c0.28 0 2.08 0.6 2.32 0.76 c0.12 0.12 0.24 0.16 0.28 0.16 c0.08 0 0.48 0.24 0.92 0.52 c0.4 0.28 0.8 0.52 0.84 0.52 s0.08 0.04 0.12 0.12 c0 0.08 0.12 0.16 0.2 0.2 c0.12 0.04 0.24 0.12 0.24 0.2 s0.12 0.16 0.24 0.2 c0.08 0.08 0.2 0.16 0.2 0.24 c0.04 0.04 0.12 0.16 0.24 0.24 c0.28 0.24 0.52 0.6 1.16 1.68 c0.32 0.52 0.56 1.08 0.56 1.2 s0.08 0.2 0.12 0.24 c0.12 0 0.2 0.24 0.2 0.44 l-0.04 0.2 c-0.04 0.04 -0.04 0.08 -0.12 0.08 l-0.04 0 c-0.04 0 -0.08 0 -0.08 0.04 c0.04 0.08 0.08 0.16 0.16 0.16 s0.16 -0.08 0.2 -0.16 l0.04 -0.08 c0.04 0 0.04 0.12 0.08 0.36 s0.04 0.52 0.08 0.6 c0 0.12 -0.04 0.2 -0.16 0.2 c-0.12 0.04 -0.16 0.04 -0.16 0.16 l0.04 0.2 c0.04 0.16 0.12 0.28 0.16 0.28 l0.04 0.08 l-0.04 0.24 c-0.08 0.2 -0.16 0.36 -0.2 0.36 c-0.08 0 -0.12 0.08 -0.16 0.16 c0 0.08 0.04 0.12 0.08 0.12 s0.04 0.04 0.04 0.08 l0 0.08 c0 0.04 -0.08 0.12 -0.12 0.12 c-0.12 0.04 -0.36 0.4 -0.4 0.6 c-0.04 0.28 -0.08 0.32 -0.2 0.32 l-0.04 0.08 l0 0.08 c0 0.2 -0.24 0.64 -0.36 0.64 l-0.36 0.4 c-0.12 0.24 -0.32 0.48 -0.44 0.56 l-0.12 0.16 c0 0.04 0.04 0.04 0.12 0.04 l0.12 0 l-0.56 0.52 c-0.12 0.08 -0.2 0.2 -0.2 0.32 l0 0.04 c0 0.04 -0.04 0.08 -0.16 0.08 c-0.08 0 -0.12 0 -0.12 0.04 l0.04 0 l0.04 0.08 c0 0.04 -0.04 0.16 -0.16 0.28 c-0.12 0.16 -0.2 0.36 -0.2 0.4 s-0.12 0.12 -0.32 0.2 c-0.32 0.16 -0.48 0.28 -0.48 0.36 l0.08 0.12 l-0.04 0.04 c-0.04 0 -0.2 0.12 -0.28 0.24 c-0.12 0.16 -0.28 0.32 -0.4 0.32 c-0.12 0.04 -0.2 0.12 -0.2 0.24 c0 0.16 -0.08 0.2 -0.36 0.24 c-0.12 0 -0.2 0.12 -0.28 0.4 c-0.08 0.2 -0.16 0.4 -0.2 0.4 s-0.16 0.12 -0.28 0.24 c-0.12 0.16 -0.36 0.32 -0.56 0.36 s-0.28 0.12 -0.28 0.2 l0.04 0.12 l-0.04 0.12 l-0.04 0.04 l-0.08 -0.16 c-0.04 0 -0.08 0.08 -0.08 0.16 l0 0.04 c0 0.08 -0.04 0.12 -0.12 0.12 s-0.12 0.04 -0.12 0.08 l0.04 0.08 l-0.16 0 c-0.08 0 -0.12 0.08 -0.16 0.2 c0 0.12 -0.12 0.24 -0.24 0.28 c-0.12 0.08 -0.24 0.16 -0.24 0.2 l0 0.04 l-0.12 0.08 c-0.08 0 -0.08 0 -0.08 -0.04 l0.08 -0.24 l-0.16 0.12 c-0.08 0.08 -0.16 0.24 -0.16 0.28 c0 0.12 -0.24 0.4 -0.36 0.44 c-0.08 0 -0.08 -0.04 -0.08 -0.08 s0.08 -0.12 0.16 -0.16 c0.12 -0.08 0.16 -0.12 0.16 -0.2 l0 -0.12 c-0.04 -0.08 -0.04 -0.16 -0.08 -0.16 l-0.08 0.08 c-0.04 0.04 -0.08 0.08 -0.08 0.12 l0 0.12 c0 0.04 -0.12 0.16 -0.24 0.28 l-0.24 0.2 c0 0.04 0.08 0.04 0.16 0.04 l0.16 0.04 l-0.12 0.04 c-0.16 0.04 -0.44 0.36 -0.44 0.48 l0 0.08 l-0.04 0 c-0.08 0 -0.08 0.04 -0.08 0.12 l0.04 0.04 l0.08 -0.04 c0.08 0 0.2 0.04 0.28 0.16 l0.08 0.16 c0 0.04 0 0.04 -0.08 0.04 l-0.12 0 l0.12 0.24 c0.08 0.08 0.12 0.16 0.16 0.16 l0.08 -0.12 c0.04 0 0.04 0 0.04 0.08 c0.04 0.08 0.12 0.16 0.2 0.2 c0.12 0.08 0.28 0.36 0.28 0.48 l-0.04 0.08 c-0.04 0 -0.04 0.04 -0.04 0.08 l0 0.08 c0 0.08 0 0.08 0.04 0.08 l0.04 -0.04 c0.04 -0.04 0.04 -0.08 0.08 -0.08 l0.04 0 l0 0.04 c0 0.08 -0.04 0.08 -0.08 0.12 l-0.04 0.08 c0 0.04 0.08 0.12 0.32 0.28 s0.32 0.24 0.32 0.36 l-0.04 0.2 c0 0.04 0.04 0.08 0.08 0.12 c0.04 0 0.08 0 0.12 -0.08 l0 -0.04 l0.2 0.24 c0.12 0.2 0.2 0.36 0.2 0.48 c0 0.08 -0.04 0.12 -0.16 0.12 c-0.08 0 -0.12 0.08 -0.12 0.12 s0.04 0.08 0.12 0.12 l0.08 0 l0 -0.08 l0.04 -0.04 c0.08 0 0.4 0.36 0.52 0.68 c0.12 0.28 0.36 0.52 0.52 0.64 c0.24 0.12 0.36 0.28 0.36 0.36 l-0.16 0 l-0.04 0.04 c0 0.08 0.16 0.24 0.32 0.32 c0.2 0.08 0.4 0.4 0.4 0.48 l-0.08 0 c-0.04 0 -0.08 0 -0.12 0.08 c0 0.12 0.32 0.4 0.48 0.4 l0.04 0 s0.04 0.04 0.04 0.12 l0.32 0.76 l0.2 0.04 l0.08 0 c0.04 0 0.08 0.04 0.08 0.08 s-0.12 0.08 -0.28 0.12 s-0.24 0.08 -0.24 0.12 s0.08 0.08 0.2 0.08 l0.08 0 c0.04 0 0.08 0 0.08 -0.04 l0 -0.04 c0.04 0 0.12 0.04 0.2 0.12 l0.12 0.28 l0 0.04 s-0.04 0 -0.12 -0.08 c-0.04 -0.08 -0.12 -0.16 -0.16 -0.16 l0 0.04 l0.08 0.2 c0.08 0.08 0.16 0.12 0.2 0.12 c0.08 0 0.16 -0.08 0.16 -0.2 l0 -0.04 c0.04 0 0.04 0.04 0.04 0.12 c0 0.16 0.04 0.24 0.12 0.24 s0.12 0.04 0.12 0.16 s0 0.16 0.04 0.16 l0.16 -0.04 c0.04 0 0.08 0.04 0.08 0.2 l0 0.12 c0 0.12 0 0.16 -0.04 0.2 c-0.04 0 -0.04 0.04 -0.04 0.08 l0.04 0.08 l0.12 -0.04 c0.12 0 0.44 0.2 0.44 0.36 l0 0.04 c0 0.08 0.04 0.16 0.12 0.2 s0.2 0.16 0.2 0.28 l0.04 0.12 c0.04 0 0.04 -0.04 0.08 -0.08 c0.04 -0.08 0.04 -0.08 0.08 -0.08 l0.08 0.04 l0.08 0.12 l-0.08 0.08 c-0.08 0 -0.12 0.08 -0.12 0.12 c0 0.08 0.2 0.12 0.32 0.12 l0.08 0 c0.04 0 0.08 0.04 0.12 0.08 c0 0.04 -0.08 0.12 -0.2 0.12 c-0.08 0 -0.16 0.08 -0.16 0.12 l0.08 0.04 l0.12 -0.04 c0.12 0 0.56 0.52 0.56 0.72 l0 0.04 c0 0.08 0.04 0.16 0.12 0.2 c0.12 0.04 0.16 0.04 0.36 0.04 c0.04 0 0.08 0.04 0.12 0.08 c0 0.16 0.72 0.84 1 1 c0.12 0.08 0.2 0.16 0.2 0.28 l0 0.2 l0.04 -0.04 c0 -0.04 0.04 -0.04 0.08 -0.04 c0.08 0 0.24 0.08 0.52 0.24 c0.28 0.2 0.48 0.32 0.6 0.32 c0.08 0 0.12 -0.04 0.16 -0.12 l0.12 -0.04 c0.04 0 0.12 0.04 0.2 0.12 l0.2 0.12 l0 0.04 l0.4 0.16 l-0.16 0.04 c-0.12 0.04 -0.16 0.04 -0.16 0.12 l0.04 0.2 c0 0.04 -0.04 0.08 -0.12 0.12 c-0.08 0 -0.36 0.12 -0.56 0.28 c-0.24 0.16 -0.48 0.32 -0.56 0.32 l-0.2 0.12 c-0.04 0.08 -0.12 0.12 -0.28 0.12 l-0.44 -0.04 l-0.36 -0.08 l-0.16 0.04 l-0.04 0.04 l-0.04 -0.04 l0 -0.04 c0 -0.08 -0.2 -0.16 -0.44 -0.28 c-0.84 -0.36 -1.92 -1.32 -2.68 -2.32 l-0.48 -0.56 c-0.24 -0.2 -0.6 -0.6 -0.64 -0.76 c0 -0.08 -0.08 -0.2 -0.16 -0.24 c-0.2 -0.12 -0.48 -0.48 -0.48 -0.64 l-0.04 -0.08 l-0.08 0 c-0.04 0 -0.04 -0.04 -0.08 -0.08 c0 -0.08 -0.08 -0.2 -0.12 -0.24 c-0.12 -0.08 -0.2 -0.24 -0.28 -0.48 l-0.04 -0.04 l-0.04 0.04 c-0.04 0 -0.16 -0.08 -0.2 -0.24 l-0.28 -0.48 c-0.08 -0.08 -0.12 -0.12 -0.12 -0.16 l0 -0.04 c0 -0.04 -0.08 -0.08 -0.16 -0.16 c-0.16 -0.12 -0.24 -0.24 -0.24 -0.36 l0 -0.08 c0 -0.04 0 -0.04 -0.08 -0.04 l-0.16 0 c-0.08 0 -0.08 0 -0.08 -0.08 l0 -0.08 c0 -0.08 -0.04 -0.28 -0.12 -0.36 c-0.12 -0.12 -0.2 -0.28 -0.2 -0.32 c-0.04 -0.2 -0.52 -0.8 -0.6 -0.84 c-0.04 0 -0.08 -0.08 -0.12 -0.16 c0 -0.08 -0.28 -0.52 -0.72 -1.04 l-0.2 -0.4 c0 -0.12 -0.08 -0.2 -0.16 -0.2 l-0.04 0 c-0.12 0 -0.2 -0.08 -0.2 -0.16 l0.04 -0.16 c0 -0.08 -0.04 -0.16 -0.16 -0.24 c-0.12 -0.12 -0.24 -0.32 -0.24 -0.4 c-0.04 -0.2 -0.44 -0.76 -0.56 -0.76 c-0.04 -0.04 -0.08 -0.12 -0.08 -0.2 l-0.2 -0.32 c-0.08 -0.08 -0.24 -0.32 -0.28 -0.52 c-0.12 -0.32 -0.52 -0.76 -0.64 -0.76 c-0.04 0 -0.04 0 -0.04 0.04 l0 0.08 c0 0.16 -0.16 0.32 -0.32 0.32 l-0.04 0 l-0.16 0.08 c0 0.08 -0.12 0.12 -0.2 0.16 c-0.08 0 -0.16 0 -0.16 0.04 l0.08 0.04 c0.04 0.04 0.08 0.04 0.08 0.08 l-0.04 0.04 l-0.12 0.04 l-0.04 0 c-0.08 0 -0.2 0.08 -0.28 0.24 c-0.08 0.12 -0.2 0.24 -0.24 0.24 c-0.08 0.04 -0.24 0.12 -0.44 0.28 c-0.28 0.2 -0.6 0.32 -1.24 0.44 l-0.16 0.04 l0.04 0.04 l0.16 0.04 l0.4 -0.08 l-0.12 0.08 c-0.12 0.08 -0.24 0.12 -0.28 0.12 l-0.04 0 c-0.04 0 -0.08 0.04 -0.08 0.12 l-0.04 0.08 l-0.04 0 c-0.04 0 -0.12 0.04 -0.16 0.12 s-0.2 0.16 -0.36 0.2 c-0.12 0.04 -0.36 0.2 -0.48 0.28 c-0.28 0.28 -0.76 0.44 -1.16 0.44 c-0.24 0 -0.4 -0.08 -0.52 -0.16 c-0.08 -0.08 -0.16 -0.12 -0.16 -0.16 s-0.04 -0.08 -0.08 -0.12 s-0.08 -0.08 -0.08 -0.12 l0.12 -0.04 l-0.24 -0.04 c-0.32 0 -0.36 0 -0.48 -0.4 c-0.08 -0.32 -0.24 -0.56 -0.32 -0.56 l0 0.12 c0 0.52 -0.4 3.56 -0.52 3.76 l-0.04 0.12 l0.08 0.32 l-0.04 0.2 c-0.08 0.12 -0.08 0.28 -0.08 0.36 l0.04 0.2 l-0.12 0.84 l0 0.44 c-0.04 0.44 -0.2 0.8 -0.32 0.92 l0.16 -0.04 c0.04 0 0.04 0 0.04 0.04 l-0.04 0.24 c-0.04 0.16 -0.16 0.28 -0.24 0.28 s-0.16 0.08 -0.16 0.16 c0.04 0.04 0.04 0.08 0.12 0.08 l0.04 0 c0.12 0 0.16 0.28 0.16 0.56 c0 0.2 -0.04 0.4 -0.08 0.52 c-0.04 0.08 -0.08 0.2 -0.08 0.28 l0.04 0.16 l-0.08 0.16 l-0.08 0.12 l0.2 -0.08 l0.04 0.04 c0 0.08 -0.04 0.12 -0.08 0.12 c-0.12 0 -0.24 0.48 -0.24 0.8 l0 0.16 c0.04 0.12 0.04 0.2 0.08 0.2 l0.16 -0.08 l0.04 0.08 l-0.08 0.2 l-0.04 0.24 c0 0.24 0.08 0.6 0.16 0.6 c0.04 0 0.08 0.04 0.08 0.08 c0 0.08 -0.12 0.2 -0.24 0.28 z M28.827999999999996 5.799999999999997 l0.08 -0.04 l-0.04 -0.04 l-0.12 0 c0 0.04 0 0.08 0.08 0.08 z M20.828 7.240000000000002 c0.04 0 0.08 -0.04 0.12 -0.08 c0.08 -0.08 0.16 -0.12 0.2 -0.12 l0.08 0 l-0.04 -0.04 c-0.04 -0.04 -0.08 -0.08 -0.12 -0.08 c-0.08 0.04 -0.12 0.04 -0.2 0.12 l-0.08 0.16 l0 0.04 l0.04 0 z M29.508 5.880000000000003 l0.04 -0.04 l0 -0.04 l-0.08 0 s-0.04 0 -0.04 0.04 l0 0.04 l0.08 0 z M30.907999999999998 5.840000000000003 l0.24 -0.04 c0.16 0 0.28 -0.08 0.32 -0.12 c0 -0.04 0 -0.08 -0.08 -0.08 z M27.308 6.640000000000001 l0.16 -0.04 c0.08 -0.08 0.28 -0.16 0.4 -0.24 l0.2 -0.08 c0.08 0 0.12 0.04 0.12 0.08 c0.04 0.04 0.08 0.04 0.12 0.04 c0.08 0 0.16 -0.04 0.16 -0.12 l0 -0.08 c0 -0.04 0.04 -0.08 0.08 -0.12 c0 -0.04 0 -0.04 -0.08 -0.04 l-0.32 0.08 c-0.28 0.08 -0.48 0.16 -0.52 0.2 c0 0.04 -0.12 0.12 -0.2 0.2 z M28.868 6.200000000000003 c0.08 0 0.12 -0.04 0.12 -0.08 s-0.04 -0.08 -0.08 -0.08 c-0.08 0.04 -0.12 0.08 -0.12 0.12 l0 0.04 l0.08 0 z M32.548 5.719999999999999 l0.08 -0.04 c0.12 0 0.2 -0.04 0.2 -0.12 l0 -0.04 c0 -0.04 0 -0.04 -0.04 -0.04 l-0.16 0.12 l-0.08 0.08 l0 0.04 z M31.827999999999996 5.799999999999997 l0.32 -0.04 c0.16 0 0.28 -0.08 0.28 -0.12 l-0.08 0 c-0.08 0 -0.16 0 -0.24 0.04 c-0.16 0.04 -0.28 0.08 -0.28 0.12 z M22.508 7.439999999999998 l0.2 -0.12 l0.08 -0.08 l-0.12 0 c-0.08 0 -0.16 0.04 -0.2 0.12 l0 0.04 c0 0.04 0 0.04 0.04 0.04 z M26.588 6.840000000000003 c0.04 0 0.12 -0.04 0.12 -0.08 l-0.08 -0.04 l-0.08 0 c-0.08 0.04 -0.12 0.08 -0.12 0.12 l0.16 0 z M32.748 6.240000000000002 l0.08 -0.08 l0.04 -0.12 c0 -0.08 -0.16 -0.16 -0.36 -0.16 c-0.12 0.04 -0.2 0.08 -0.2 0.12 s0.08 0.12 0.16 0.16 l0.08 0.04 c0.04 0 0.04 0 0.04 -0.08 s0.04 -0.12 0.12 -0.12 l0.04 0.12 l0 0.12 z M31.948 6.159999999999997 c0.04 0 0.12 -0.04 0.2 -0.12 l0.04 -0.08 l-0.12 0 c-0.12 0.04 -0.2 0.08 -0.2 0.12 s0.04 0.08 0.08 0.08 z M29.948 6.359999999999999 l0.08 -0.04 l0 -0.04 l-0.08 0 c-0.04 0 -0.04 0 -0.04 0.04 l0 0.04 l0.04 0 z M30.227999999999998 6.600000000000001 c0.12 0 0.24 -0.08 0.32 -0.16 l0.08 -0.08 l-0.04 0.12 c0 0.04 0.04 0.04 0.08 0.04 l0.08 0 c0.08 0 0.16 -0.08 0.16 -0.12 s0.16 -0.12 0.36 -0.12 c0.2 -0.04 0.28 -0.04 0.28 -0.08 l-0.04 -0.04 c-0.04 -0.04 -0.12 -0.04 -0.24 -0.04 c-0.32 0.04 -0.8 0.16 -0.88 0.28 c-0.04 0.04 -0.12 0.08 -0.2 0.08 l-0.16 0 l0 0.04 c0.04 0.04 0.12 0.08 0.2 0.08 z M28.028 7 l0.52 -0.16 c0.04 0 0.12 -0.08 0.12 -0.16 l0 -0.12 s-0.04 0 -0.04 0.08 l-0.28 0.16 c-0.12 0 -0.24 0.04 -0.32 0.12 l-0.04 0.04 z M27.387999999999998 6.920000000000002 l0.04 -0.04 l0 -0.04 l-0.08 0 s-0.04 0 -0.04 0.04 l0 0.04 l0.08 0 z M29.467999999999996 6.600000000000001 l0.04 -0.04 l-0.08 -0.04 l-0.04 0.08 l0.08 0 z M29.747999999999998 6.560000000000002 l0.04 -0.04 l-0.08 -0.04 l-0.04 0.08 l0.08 0 z M33.428 6.039999999999999 l0.08 -0.04 l0 -0.04 l-0.08 0 c-0.04 0 -0.04 0 -0.04 0.04 l0 0.04 l0.04 0 z M34.188 6.039999999999999 l0.08 -0.04 l-0.04 -0.04 l-0.12 0 l0 0.04 z M26.708 7.200000000000003 l0.04 -0.04 c0 -0.04 0 -0.08 -0.04 -0.12 c-0.04 0 -0.04 0.04 -0.04 0.08 z M26.827999999999996 7.359999999999999 l0.08 -0.04 c0.12 -0.04 0.36 -0.12 0.56 -0.12 c0.24 -0.04 0.4 -0.12 0.4 -0.16 s-0.08 -0.04 -0.16 -0.04 c-0.2 0 -0.68 0.16 -0.84 0.28 z M33.94799999999999 6.280000000000001 c0.08 0 0.16 -0.04 0.16 -0.08 l-0.04 -0.08 l-0.2 0 l-0.08 0.08 c0 0.04 0.04 0.04 0.08 0.08 l0.08 0 z M29.348 7 c0.04 0 0.08 -0.04 0.12 -0.12 c0 -0.04 -0.04 -0.08 -0.12 -0.08 c-0.08 0.04 -0.12 0.08 -0.12 0.12 s0.08 0.08 0.12 0.08 z M34.308 6.200000000000003 l0.08 -0.04 l-0.08 -0.04 l-0.08 0.04 l0 0.04 l0.08 0 z M23.427999999999997 26.52 c0.08 0 0.12 -0.04 0.12 -0.04 l0 -0.04 c0 -0.08 0.08 -0.08 0.24 -0.08 c0.2 0 0.72 -0.32 0.72 -0.44 l-0.04 -0.08 c0 -0.04 0.16 -0.08 0.32 -0.08 l0.04 0 c0.24 0 1.08 -0.52 1.2 -0.76 c0.08 -0.12 0.2 -0.24 0.32 -0.28 c0.12 0 0.24 -0.12 0.28 -0.2 c0.04 -0.16 0.12 -0.24 0.2 -0.24 s0.12 0.04 0.12 0.16 l-0.04 0.12 l0.04 0 l0.08 -0.12 c0.04 -0.12 0.12 -0.2 0.2 -0.2 c0.04 0 0.12 -0.08 0.16 -0.16 c0.04 -0.12 0.16 -0.16 0.2 -0.16 l0.04 0 c0.16 0 0.36 -0.24 0.4 -0.48 c0.04 -0.08 0.08 -0.16 0.16 -0.16 l0.08 0 l-0.16 0.16 l0.04 0 c0.16 -0.04 0.32 -0.2 0.32 -0.36 l-0.04 -0.08 c-0.04 -0.08 -0.12 -0.12 -0.16 -0.12 s-0.12 -0.08 -0.2 -0.24 c-0.16 -0.24 -0.24 -0.32 -0.72 -0.84 c-0.16 -0.16 -0.24 -0.36 -0.24 -0.44 c0.04 -0.2 0.88 -0.8 1.36 -0.96 l0.28 -0.04 c0.44 0 1.08 0.2 1.36 0.44 c0.12 0.08 0.16 0.12 0.2 0.12 l0 -0.04 l-0.08 -0.08 l0.04 -0.04 c0.12 0 0.36 0.36 0.4 0.56 c0 0.08 0.04 0.08 0.08 0.08 c0.12 0 0.28 -0.12 0.48 -0.4 c0.16 -0.2 0.36 -0.36 0.44 -0.36 c0.2 -0.04 1.4 -1.12 1.92 -1.72 l0.36 -0.28 c0.12 -0.08 0.16 -0.12 0.16 -0.16 l-0.16 -0.08 c0 -0.04 0.04 -0.04 0.12 -0.04 c0.2 0 0.76 -0.44 0.76 -0.6 c0 -0.04 0.08 -0.12 0.2 -0.16 c0.28 -0.12 0.84 -0.84 0.84 -0.96 l-0.04 -0.08 l0.04 -0.04 c0.12 0 0.4 -0.16 0.56 -0.36 l0.08 -0.12 l-0.08 -0.08 c-0.08 -0.04 -0.08 -0.04 -0.08 -0.08 s0.08 -0.08 0.24 -0.16 c0.36 -0.12 0.48 -0.2 0.48 -0.36 l0 -0.04 c0 -0.12 0.04 -0.2 0.16 -0.2 c0.08 0 0.16 -0.08 0.16 -0.12 l0 -0.2 c0 -0.08 0.12 -0.2 0.28 -0.32 c0.12 -0.08 0.2 -0.16 0.2 -0.2 l-0.04 -0.04 l0.04 -0.16 c0.04 -0.08 0.08 -0.12 0.12 -0.12 l0.08 0 c0.08 0 0.28 -0.24 0.28 -0.36 l0 -0.08 c0 -0.04 0 -0.04 0.04 -0.04 c0.04 -0.04 0.12 -0.12 0.12 -0.2 c0.04 -0.2 0.4 -0.68 0.48 -0.68 c0.04 0 0.04 -0.04 0.04 -0.12 l0 -0.08 c0 -0.04 0.04 -0.08 0.08 -0.08 l0.04 0 l0 -0.08 c0 -0.08 0.08 -0.32 0.2 -0.6 c0.32 -0.72 0.44 -1.28 0.44 -2.04 s-0.08 -1 -0.56 -1.44 c-1.04 -1.04 -3.24 -1.64 -5.52 -1.64 c-0.64 0 -1.28 0.04 -1.88 0.12 c-0.36 0.08 -0.56 0.08 -0.72 0.08 c-0.08 0 -0.16 0 -0.16 -0.04 s0 -0.08 -0.04 -0.08 l-0.04 0.08 c-0.04 0.08 -0.48 0.24 -1.6 0.48 l-1.24 0.32 c-1.44 0.4 -1.88 0.56 -1.88 0.72 l0 0.04 c0 0.04 -0.04 0.08 -0.12 0.08 s-0.16 0.12 -0.16 0.28 c0 0.12 0 0.32 -0.04 0.44 l-0.12 0.72 l0.04 0.52 c0 0.24 -0.04 0.52 -0.12 0.52 l-0.04 0 c-0.04 0 -0.08 0 -0.08 0.08 l0.04 0.12 l-0.04 0.24 c0.04 0 0.04 -0.04 0.08 -0.08 s0.04 -0.08 0.08 -0.08 l0 0.04 c0 0.04 -0.04 0.16 -0.08 0.2 c-0.12 0.08 -0.28 0.84 -0.32 1.4 c0 0.12 0 0.2 0.04 0.2 l0.08 -0.04 c0.04 0 0.04 0.04 0.04 0.08 s-0.04 0.12 -0.12 0.12 c-0.12 0 -0.24 0.6 -0.24 1 l0.04 0.24 l-0.04 0.08 l0.04 0.52 c0 0.48 -0.08 1 -0.2 1.04 c-0.08 0.04 -0.16 0.16 -0.16 0.28 c0 0.08 0 0.12 0.08 0.12 c0.04 0.04 0.04 0.08 0.04 0.2 l0 0.12 l-0.08 0.2 l-0.08 -0.08 c-0.04 0 -0.08 0.16 -0.12 0.4 l-0.04 0.32 l0.04 0.2 c0.04 0.04 0.04 0.12 0.04 0.2 c0 0.32 -0.16 0.88 -0.36 1.12 c-0.12 0.12 -0.16 0.2 -0.16 0.24 l0.4 -0.08 l-0.16 0.2 c-0.16 0.12 -0.2 0.24 -0.2 0.28 l0 0.04 l0.4 -0.16 c0 0.04 -0.08 0.12 -0.2 0.2 c-0.12 0.04 -0.2 0.12 -0.2 0.16 l0.04 0.16 l-0.04 0.08 c-0.04 0 -0.08 0.2 -0.08 0.4 l0 0.24 c0 0.08 0 0.12 0.04 0.12 l0.08 -0.08 c0.04 0 0.04 0.04 0.04 0.16 c0.04 0.12 0.08 0.16 0.12 0.16 l0.2 -0.04 l0.04 0.08 l-0.08 0.28 c-0.04 0.08 -0.04 0.12 -0.08 0.12 l0 -0.12 l-0.04 -0.04 l-0.12 0.04 c-0.04 0.04 -0.08 0.08 -0.08 0.12 c0.08 0 0.16 0.04 0.16 0.08 c0 0.12 -0.28 0.52 -0.36 0.52 c-0.04 0 -0.12 0.16 -0.16 0.32 l-0.04 0.16 c0 0.08 0.04 0.12 0.12 0.16 c0.04 0.04 0.08 0.12 0.08 0.2 c0 0.16 -0.04 0.28 -0.12 0.28 s-0.12 0.16 -0.16 0.36 l-0.12 0.84 c-0.04 0.28 -0.12 0.72 -0.12 1.04 l-0.12 0.88 c0 0.08 0 0.08 0.04 0.08 l0.04 0 z M26.348 7.520000000000003 l0.24 -0.12 l0.12 -0.08 l-0.16 0 c-0.12 0 -0.2 0.08 -0.24 0.12 l0 0.04 c0 0.04 0 0.04 0.04 0.04 z M22.508 8.280000000000001 l0.08 -0.04 l-0.08 -0.04 l-0.08 0.04 z M21.907999999999998 8.559999999999999 l0.08 -0.04 l-0.08 -0.08 l-0.08 0.04 c0 0.04 0.04 0.08 0.08 0.08 z M21.107999999999997 9.04 c0.04 0 0.08 -0.08 0.08 -0.12 l0 -0.04 c0 -0.04 0 -0.04 -0.04 -0.04 s-0.08 0.04 -0.08 0.12 z M22.267999999999997 9.239999999999998 c0.08 0 0.16 -0.04 0.24 -0.12 l0.04 -0.08 l-0.16 0 c-0.08 0 -0.16 0.04 -0.16 0.08 l0 0.04 z M22.067999999999998 9.280000000000001 l0.04 -0.08 l-0.08 -0.04 l-0.04 0.08 z M21.427999999999997 9.719999999999999 l0.04 -0.04 c0 -0.04 0 -0.08 -0.04 -0.12 l-0.04 0 l0 0.08 z M20.188 10.32 l0.2 -0.04 c0.16 -0.04 0.36 -0.16 0.48 -0.24 l0.16 -0.16 l-0.12 0 l-0.16 0.04 c-0.4 0.08 -0.56 0.16 -0.6 0.32 c0 0.08 0 0.08 0.04 0.08 z M18.308 10.719999999999999 c0.08 -0.04 0.2 -0.12 0.24 -0.2 l0.08 -0.08 l-0.04 0 c-0.08 0 -0.16 0.04 -0.28 0.16 l-0.16 0.12 l0.16 0 z M18.828 11.2 c0.08 0 0.24 -0.08 0.4 -0.2 c0.12 -0.12 0.2 -0.16 0.2 -0.2 l-0.08 -0.08 l-0.16 -0.12 l-0.04 0.04 l0.08 0.16 c0 0.04 -0.08 0.12 -0.2 0.2 c-0.12 0.04 -0.24 0.12 -0.24 0.16 z M18.067999999999998 11.120000000000001 l0.16 -0.04 c-0.04 -0.04 -0.08 -0.08 -0.12 -0.08 l-0.08 0 c-0.04 0 -0.04 0.04 -0.04 0.04 l0 0.04 c0 0.04 0 0.04 0.04 0.04 l0.04 0 z M17.708 11.280000000000001 l0.04 -0.04 l0 -0.04 l-0.08 0 s-0.04 0 -0.04 0.04 l0 0.04 l0.08 0 z M26.107999999999997 10.079999999999998 c-0.08 0 -0.08 -0.04 -0.08 -0.08 l0.08 -0.04 l0.08 0.08 z M18.628 11.239999999999998 l0.04 -0.04 l0 -0.04 l-0.08 0 s-0.04 0 -0.04 0.04 l0 0.04 l0.08 0 z M17.227999999999998 11.64 l0.12 -0.16 l-0.04 -0.04 c-0.04 0 -0.04 0.04 -0.08 0.08 l0 0.12 z M18.548 11.440000000000001 c0.08 0 0.08 -0.04 0.08 -0.08 l-0.08 0 l-0.08 0.04 z M18.148 11.68 c0.04 0 0.08 -0.04 0.12 -0.12 c0 -0.04 -0.04 -0.08 -0.12 -0.08 c-0.08 0.04 -0.12 0.08 -0.12 0.12 s0.08 0.08 0.12 0.08 z M16.787999999999997 11.96 c0.04 0 0.12 -0.04 0.12 -0.12 l0 -0.04 l-0.08 0.04 c-0.08 0.04 -0.12 0.08 -0.12 0.12 l0.08 0 z M15.907999999999998 12.559999999999999 l0.12 -0.04 c0.08 0 0.12 -0.04 0.12 -0.08 s-0.04 -0.04 -0.04 -0.04 l-0.12 0 l-0.12 0.12 z M17.107999999999997 12.36 l0.28 -0.04 l-0.04 -0.04 l-0.12 0 l-0.12 0.04 l0 0.04 z M16.587999999999997 12.84 l0.32 -0.16 c0.08 -0.04 0.08 -0.04 0.08 -0.08 l-0.16 -0.04 c-0.08 0.04 -0.16 0.08 -0.2 0.2 z M15.227999999999998 13.280000000000001 c0.08 0 0.12 -0.04 0.12 -0.04 l-0.08 -0.04 l-0.16 0.08 l0.12 0 z M15.307999999999998 14.120000000000001 l0.08 -0.04 l0 -0.04 l-0.08 0 l-0.08 0.04 l-0.04 0.04 l0.12 0 z M14.987999999999998 14.48 l0.16 -0.08 c0.08 -0.04 0.12 -0.08 0.12 -0.12 l0 -0.04 l-0.12 0.04 l-0.08 -0.04 c-0.04 -0.04 -0.04 -0.08 -0.08 -0.08 l-0.08 0.08 l-0.04 0.12 c0 0.08 0.04 0.12 0.12 0.12 z M25.747999999999998 12.760000000000002 l-0.04 -0.04 l0 -0.08 l0.08 0.04 z M13.467999999999998 15.399999999999999 l0.04 -0.04 l0 -0.04 l-0.08 0 s-0.04 0 -0.04 0.04 l0 0.04 l0.08 0 z M23.227999999999998 14.559999999999999 c0.04 -0.04 0.08 -0.04 0.08 -0.08 l0 -0.04 l-0.04 -0.08 c-0.04 0 -0.08 0.04 -0.08 0.12 l0 0.04 z M13.747999999999998 16 c0.04 0 0.08 -0.08 0.08 -0.16 c0 -0.04 -0.04 -0.08 -0.08 -0.08 c0 0 -0.04 0 -0.04 0.04 l-0.04 0.08 l0 0.04 c0 0.08 0.04 0.08 0.08 0.08 z M21.907999999999998 15.559999999999999 l0.04 -0.12 l-0.08 -0.04 c-0.04 0 -0.04 0.04 -0.04 0.08 z M24.907999999999998 15.2 l0.04 -0.04 c0.04 -0.04 0.08 -0.08 0.08 -0.16 c-0.04 0 -0.04 -0.04 -0.04 -0.04 l-0.08 0.04 l-0.04 0.12 l0 0.04 z M25.348 15.16 l-0.04 -0.08 l0 -0.08 l0.04 0 c0.04 0.04 0.04 0.08 0.04 0.12 z M42.147999999999996 12.8 c0 -0.04 0 -0.12 -0.04 -0.16 c0 -0.04 -0.04 -0.04 -0.04 -0.04 l0 0.08 c0 0.08 0.04 0.12 0.04 0.12 l0.04 0 z M24.868 15.52 c0.04 0 0.04 -0.04 0.08 -0.12 l0 -0.04 c0 -0.04 0 -0.04 -0.04 -0.04 s-0.08 0.04 -0.08 0.08 l0 0.04 c0 0.04 0 0.08 0.04 0.08 z M42.468 13.04 l-0.04 0 l-0.04 -0.08 l0 -0.04 l0.04 0 c0.04 0 0.04 0.04 0.04 0.08 l0 0.04 z M24.827999999999996 15.879999999999999 l0.04 -0.04 c0 -0.04 0 -0.08 -0.04 -0.12 c-0.04 0 -0.04 0.04 -0.04 0.08 z M25.107999999999997 16.48 l0 -0.04 c0 -0.04 0 -0.16 0.04 -0.24 l0.04 -0.08 c0.04 0 0.04 0 0.04 0.04 s0 0.16 -0.04 0.24 z M39.548 14.239999999999998 l0.08 -0.04 l0 -0.04 l-0.08 -0.04 l-0.08 0.04 c0 0.04 0.04 0.08 0.08 0.08 z M40.708 14.239999999999998 l0.04 -0.04 c0 -0.04 0 -0.08 -0.04 -0.12 l-0.04 0 l0 0.08 z M37.548 14.8 c0.04 0 0.08 -0.08 0.08 -0.12 l0.04 -0.04 l-0.04 -0.04 l-0.08 0.08 l0 0.12 z M24.787999999999997 18.12 l-0.04 -0.08 c0 -0.08 0 -0.12 0.08 -0.12 c0.04 0 0.08 -0.08 0.08 -0.16 l0 -0.08 l-0.12 0.04 l-0.08 -0.04 l0 -0.04 c0 -0.04 0.04 -0.08 0.08 -0.08 c0.08 0 0.16 -0.12 0.24 -0.24 l0.04 -0.12 c0.04 0 0.04 0 0.04 0.04 l-0.04 0.28 c-0.04 0.28 -0.2 0.6 -0.28 0.6 z M23.787999999999997 18.16 c0 0 0.04 -0.08 0.04 -0.2 c0 -0.08 0 -0.16 -0.08 -0.16 c-0.04 0 -0.04 0.08 -0.04 0.2 z M39.507999999999996 15.719999999999999 c0.08 -0.04 0.12 -0.08 0.12 -0.12 s-0.04 -0.08 -0.08 -0.08 c-0.08 0 -0.12 0.04 -0.12 0.12 l0 0.04 z M38.548 15.84 l0.08 -0.04 l0 -0.04 l-0.08 0 s-0.04 0 -0.04 0.04 l0 0.04 l0.04 0 z M39.867999999999995 15.84 l0.08 -0.04 l-0.08 -0.04 l-0.08 0.04 c0 0.04 0 0.04 0.08 0.04 z M39.988 15.96 l0.12 -0.04 c0.04 -0.04 0.08 -0.04 0.08 -0.08 l0 -0.04 l-0.04 0 c-0.04 0 -0.08 0.04 -0.12 0.08 z M39.147999999999996 16.72 c0.08 0 0.2 -0.04 0.2 -0.12 c0 -0.04 0.08 -0.04 0.16 -0.04 l0.08 0 l-0.08 -0.24 l0.04 -0.12 l0.08 -0.08 l-0.08 -0.04 c-0.04 0 -0.08 0.04 -0.08 0.12 c0 0.04 -0.04 0.04 -0.08 0.04 l-0.04 0 c-0.04 0 -0.08 0.04 -0.12 0.12 s-0.16 0.16 -0.28 0.16 c-0.04 0 -0.08 0.04 -0.08 0.08 l0 0.04 c0.04 0.04 0.16 0.08 0.28 0.08 z M37.668 16.72 c0.04 0 0.16 -0.08 0.28 -0.24 l0.12 -0.16 c0 -0.04 0 -0.04 -0.04 -0.04 s-0.16 0.12 -0.28 0.24 l-0.12 0.16 z M24.868 18.48 l-0.04 -0.04 l0.04 -0.08 c0 -0.04 0.04 -0.08 0.08 -0.08 l0.04 0.04 l-0.04 0.04 c0 0.04 -0.04 0.12 -0.08 0.12 z M36.908 16.84 l0.04 -0.08 l-0.08 -0.04 l-0.04 0.08 z M37.628 16.96 l0.04 -0.08 l-0.08 -0.04 c-0.04 0 -0.04 0.04 -0.04 0.08 z M37.388 17.36 l0.08 -0.04 c0.08 -0.04 0.12 -0.08 0.12 -0.12 l-0.04 0 c-0.04 0 -0.08 0.04 -0.12 0.08 z M34.668 17.8 l-0.08 -0.04 c0 -0.04 0.04 -0.04 0.04 -0.04 l0.08 0 l0 0.04 s0 0.04 -0.04 0.04 z M36.94799999999999 17.56 c0.04 0 0.04 -0.04 0.04 -0.04 l0 -0.04 l-0.08 0 s-0.04 0 -0.04 0.04 l0 0.04 l0.08 0 z M38.748 17.76 c0.04 0 0.08 -0.04 0.12 -0.12 c0 -0.04 0 -0.08 -0.04 -0.08 c-0.08 0 -0.12 0.04 -0.16 0.12 c0 0.04 0 0.08 0.08 0.08 z M38.227999999999994 17.84 c0.08 0 0.16 -0.08 0.2 -0.12 c0 -0.08 0 -0.08 -0.04 -0.08 s-0.12 0.04 -0.2 0.12 l-0.08 0.08 l0.12 0 z M38.108 18.12 l0.04 -0.04 c0 -0.04 0 -0.08 -0.04 -0.12 l-0.04 0 l0 0.08 z M37.94799999999999 18.32 l0.04 -0.04 s0 -0.08 -0.04 -0.12 c-0.04 0 -0.04 0.04 -0.04 0.08 z M23.508 20.52 l0.08 -0.12 l0 -0.08 c-0.04 0 -0.08 0.04 -0.12 0.12 c0 0.04 0 0.08 0.04 0.08 z M37.268 18.96 l0.12 -0.08 l0.2 -0.28 c0.04 -0.08 0.08 -0.16 0.12 -0.16 c0.08 0 0.12 -0.04 0.12 -0.08 s0 -0.08 -0.04 -0.08 l-0.08 0.04 l-0.4 0.12 l0.04 0.04 l-0.04 0.28 l-0.08 0.16 z M24.708 20.32 l-0.04 0 l-0.04 -0.04 l0 -0.08 l0.04 0 c0.04 0.04 0.04 0.08 0.04 0.12 z M38.668 18.4 l0.08 -0.04 l0 -0.04 l-0.04 -0.08 c-0.04 0 -0.08 0.04 -0.08 0.08 l0 0.08 l0.04 0 z M38.028 18.72 l0.08 -0.16 c0 -0.08 0 -0.12 -0.04 -0.12 l-0.04 0.04 c-0.04 0.04 -0.04 0.08 -0.04 0.12 c0 0.08 0 0.12 0.04 0.12 z M32.708 19.64 l-0.04 -0.08 c0 -0.04 0.04 -0.08 0.08 -0.12 c0.04 0 0.04 0 0.04 0.04 l0 0.08 c0 0.04 -0.04 0.08 -0.08 0.08 z M35.507999999999996 19.24 l0.32 -0.08 l-0.12 -0.04 c-0.12 -0.04 -0.24 -0.04 -0.32 -0.04 l-0.08 0.04 l0.04 0.04 c0.04 0.04 0.08 0.08 0.16 0.08 z M24.587999999999997 20.8 l-0.08 -0.04 c0 -0.08 0 -0.08 0.04 -0.08 l0.08 0.04 z M36.268 19.96 c0.08 0 0.08 -0.04 0.12 -0.12 l0.08 -0.04 l0.08 0 c0.04 0 0.08 0 0.08 -0.04 s0.12 -0.16 0.28 -0.28 s0.28 -0.24 0.28 -0.32 l0 -0.04 c-0.04 -0.04 -0.08 -0.04 -0.12 -0.04 l-0.16 0.16 c-0.12 0.12 -0.32 0.24 -0.4 0.28 c-0.24 0.08 -0.44 0.24 -0.44 0.36 l0.04 0.04 z M37.708 19.2 l0.04 -0.12 c0 -0.04 -0.08 -0.04 -0.16 -0.04 l-0.16 0.04 z M24.028 21.36 c0.04 0 0.08 -0.04 0.08 -0.08 l0 -0.08 c0 -0.04 0 -0.04 -0.04 -0.04 c-0.04 0.04 -0.08 0.04 -0.08 0.08 l0 0.04 z M22.508 21.68 l0.04 -0.12 l-0.08 -0.04 l0 0.08 z M33.227999999999994 20.4 c0.04 0 0.12 -0.08 0.32 -0.24 c0.12 -0.08 0.2 -0.16 0.2 -0.2 c-0.12 0 -0.56 0.36 -0.56 0.4 z M34.468 20.12 c0.04 0 0.08 0 0.12 -0.08 c0 -0.08 -0.08 -0.08 -0.24 -0.08 c-0.12 0.04 -0.16 0.04 -0.16 0.08 l0.08 0.04 z M34.708 20.28 c0.04 0 0.04 -0.04 0.08 -0.08 l0.04 -0.08 l-0.04 -0.04 c-0.04 0 -0.08 0.08 -0.08 0.12 l-0.04 0.04 z M35.227999999999994 21.28 c0.04 0 0.04 -0.04 0.08 -0.12 l0.04 -0.08 l0.12 0 l-0.08 -0.12 l0.04 -0.04 c0.04 0 0.04 -0.04 0.04 -0.08 l0 -0.08 c0 -0.04 0.04 -0.08 0.28 -0.08 c0.16 0 0.24 -0.04 0.24 -0.08 l0 -0.04 c-0.04 -0.04 -0.08 -0.04 -0.16 -0.04 l-0.08 0 c-0.04 0 -0.08 0 -0.08 -0.04 l0.08 -0.08 c0.2 -0.08 0.32 -0.16 0.32 -0.24 l-0.04 -0.08 c-0.04 -0.04 -0.08 -0.04 -0.12 -0.04 s-0.08 0.04 -0.12 0.12 c-0.08 0.08 -0.2 0.2 -0.32 0.24 c-0.16 0.08 -0.32 0.24 -0.32 0.32 l0.04 0.04 l0.04 0 c0.04 0 0.08 0 0.08 0.04 l-0.04 0.08 c-0.04 0.08 -0.12 0.12 -0.16 0.12 l-0.08 0 l-0.04 0.04 l0.16 0.2 z M33.828 20.48 c0.08 0 0.12 0 0.12 -0.04 l-0.2 0 l-0.04 0.04 l0.12 0 z M23.227999999999998 22.32 c0.04 0 0.08 -0.08 0.12 -0.16 c0 -0.08 0 -0.12 -0.08 -0.12 c-0.04 0 -0.08 0.08 -0.08 0.16 l0 0.04 c0 0.04 0 0.08 0.04 0.08 z M32.867999999999995 20.84 l0.08 -0.12 l0 -0.08 c-0.04 0 -0.08 0.04 -0.12 0.08 c0 0.08 0 0.12 0.04 0.12 z M22.868 22.28 l0.04 -0.04 l0 -0.04 l-0.08 0 s-0.04 0 -0.04 0.04 l0 0.04 l0.08 0 z M24.267999999999997 22.72 l-0.08 0 l0.04 -0.04 l0.08 -0.16 c0 -0.08 -0.08 -0.16 -0.2 -0.16 c-0.04 0 -0.08 0 -0.08 -0.04 l0.32 -0.24 l0.04 0 c0.08 0 0.12 0.04 0.12 0.08 l-0.04 0.08 c-0.08 0.08 -0.08 0.2 -0.08 0.28 l0 0.08 c0 0.08 -0.04 0.12 -0.12 0.12 z M34.028 20.92 c0 -0.04 0 -0.12 -0.04 -0.16 l-0.04 -0.04 l0 0.08 c0 0.08 0.04 0.12 0.04 0.12 l0.04 0 z M36.227999999999994 20.64 l0.08 -0.04 l-0.04 -0.04 l-0.08 -0.04 l-0.04 0.08 z M23.188 22.6 l0.08 -0.04 l0 -0.04 l-0.08 0 c-0.04 0 -0.04 0 -0.04 0.04 l0 0.04 l0.04 0 z M32.227999999999994 21.36 l0.04 -0.08 l-0.08 -0.04 c-0.04 0 -0.04 0 -0.04 0.08 z M35.94799999999999 20.96 c0.04 -0.04 0.08 -0.08 0.08 -0.12 l0 -0.04 c0 -0.04 0 -0.04 -0.04 -0.04 l-0.08 0.04 l0 0.04 c0 0.08 0.04 0.12 0.04 0.12 z M23.227999999999998 22.84 c0 -0.04 0 -0.08 -0.04 -0.12 c-0.04 0 -0.04 0.04 -0.04 0.08 l0.04 0.04 l0.04 0 z M24.028 22.72 l-0.08 -0.04 c0 -0.04 0 -0.08 0.04 -0.08 l0.08 0.04 z M22.628 23.04 l0.08 -0.04 l-0.08 -0.04 l-0.08 0.04 c0 0.04 0.04 0.04 0.08 0.04 z M23.188 23.12 c0 -0.04 0 -0.08 -0.04 -0.12 c-0.04 0 -0.04 0.04 -0.04 0.08 l0.04 0.04 l0.04 0 z M34.587999999999994 21.48 c0.12 0 0.2 -0.04 0.2 -0.08 s-0.04 -0.04 -0.12 -0.04 l-0.08 0 c-0.08 0 -0.12 0.04 -0.12 0.08 z M31.988 22.36 c0.12 -0.04 0.16 -0.12 0.16 -0.24 l0 -0.08 l0.08 -0.16 c0.08 -0.04 0.12 -0.12 0.12 -0.16 c0 0 0 -0.04 -0.04 -0.04 c0 0 -0.08 0.04 -0.12 0.12 c-0.08 0.08 -0.24 0.16 -0.32 0.2 c-0.08 0 -0.12 0 -0.12 0.04 l0.12 0.04 l0.08 0.08 l-0.04 0 c-0.08 0.04 -0.12 0.08 -0.12 0.12 s0.12 0.08 0.2 0.08 z M33.988 21.88 c0.04 0 0.04 -0.08 0.08 -0.12 l0 -0.04 c0 -0.04 0 -0.04 -0.04 -0.04 s-0.08 0.04 -0.08 0.08 l0 0.04 z M34.308 21.84 c0.04 -0.04 0.08 -0.08 0.08 -0.12 s-0.08 -0.08 -0.12 -0.08 s-0.08 0.04 -0.08 0.12 z M32.708 22.12 c0.04 0 0.12 -0.08 0.12 -0.16 l-0.04 -0.08 l-0.04 0 c-0.04 0 -0.08 0.08 -0.12 0.16 l0.04 0.08 l0.04 0 z M32.428 22 c0.08 0 0.12 -0.04 0.12 -0.04 l0 -0.04 l-0.08 0 c-0.04 0 -0.08 0 -0.12 0.04 l-0.04 0.04 l0.12 0 z M35.548 21.84 l0 -0.12 l0.08 -0.08 l0.04 0.04 l-0.04 0.04 c0 0.04 -0.04 0.12 -0.08 0.12 z M34.988 21.8 c0.08 0 0.12 -0.04 0.12 -0.04 c0 -0.04 -0.04 -0.04 -0.08 -0.04 l-0.08 0.04 l-0.04 0.04 l0.08 0 z M34.788 22 c0 -0.04 0 -0.08 -0.04 -0.12 c-0.04 0 -0.04 0.04 -0.04 0.08 l0.04 0.04 l0.04 0 z M32.388 22.44 c0.08 0 0.16 -0.04 0.16 -0.08 c0 -0.08 -0.08 -0.08 -0.16 -0.08 c-0.04 0 -0.12 0.04 -0.16 0.12 c0 0.04 0.08 0.04 0.16 0.04 z M31.628 22.48 l0.08 -0.04 l-0.08 -0.04 s-0.04 0 -0.04 0.04 l0 0.04 l0.04 0 z M23.067999999999998 23.92 c0.08 0 0.08 -0.08 0.08 -0.12 l-0.04 -0.08 c-0.04 0 -0.08 0.04 -0.08 0.12 l0 0.04 z M23.907999999999998 23.96 l-0.04 0 s-0.04 -0.04 -0.04 -0.12 l0 -0.08 l0.04 0.04 c0.04 0.04 0.04 0.12 0.04 0.16 z M31.868 22.92 c0.08 0 0.12 -0.04 0.12 -0.08 l-0.08 0 c-0.04 0 -0.08 0 -0.12 0.04 l-0.04 0.04 l0.12 0 z M33.068 23.04 l0.04 -0.08 l-0.12 0 l0 0.04 z M23.787999999999997 24.439999999999998 c-0.04 0 -0.04 -0.04 -0.08 -0.08 c0 -0.04 0 -0.08 0.04 -0.08 l0.08 0.08 z M32.308 23.76 c0.04 0 0.2 -0.16 0.32 -0.36 c0.12 -0.16 0.16 -0.24 0.16 -0.28 l-0.16 0.08 c-0.12 0.08 -0.2 0.12 -0.2 0.2 l0 0.12 l-0.08 0.16 l-0.08 0.08 l0.04 0 z M32.227999999999994 23.48 c0.04 0 0.04 0 0.04 -0.04 c0 -0.08 0 -0.16 -0.04 -0.16 l-0.08 -0.04 l-0.04 0.08 l0.04 0.12 z M22.907999999999998 25.119999999999997 l0.08 -0.04 c0.04 -0.04 0.12 -0.08 0.12 -0.12 l-0.16 0 c-0.08 0 -0.12 0.04 -0.12 0.08 s0.04 0.08 0.08 0.08 z M21.548 25.4 l0.04 -0.08 l-0.08 -0.04 l0 0.08 z M22.267999999999997 25.4 l0.04 -0.04 l-0.04 -0.12 c-0.04 0 -0.04 0.04 -0.04 0.08 z M22.828 25.84 l0.04 -0.08 c0.04 -0.12 0.04 -0.28 0.04 -0.4 c-0.04 -0.08 -0.04 -0.12 -0.08 -0.12 c-0.04 0.04 -0.04 0.2 -0.04 0.4 z M29.147999999999996 24.6 l0.08 -0.04 l0 -0.04 l-0.08 0 s-0.04 0 -0.04 0.04 l0 0.04 l0.04 0 z M23.628 25.68 l-0.04 -0.04 l0.04 -0.24 c0.04 -0.04 0.04 -0.08 0.08 -0.08 l0 0.04 l-0.04 0.24 z M29.427999999999997 24.72 l0.04 -0.08 l-0.08 -0.04 c-0.04 0 -0.04 0 -0.04 0.08 z M29.628 24.8 l0.04 -0.08 l-0.08 -0.08 c-0.04 0 -0.04 0.04 -0.04 0.08 c0.04 0.08 0.08 0.08 0.08 0.08 z M28.107999999999997 25.119999999999997 c0.08 0 0.12 -0.04 0.16 -0.12 l-0.04 -0.04 s-0.04 0.04 -0.12 0.04 c-0.08 0.04 -0.16 0.08 -0.16 0.12 l0.16 0 z M29.387999999999998 25.04 l0.08 -0.12 l0 -0.08 c-0.04 0 -0.08 0.04 -0.08 0.12 l-0.04 0.04 z M20.467999999999996 26.48 l0 -0.04 l-0.04 -0.08 c-0.04 0 -0.04 0 -0.04 0.08 z M22.828 26.16 c0.04 0 0.04 0 0.04 -0.04 c-0.04 -0.04 -0.08 -0.08 -0.16 -0.08 l0 -0.04 l-0.04 0.04 z M29.747999999999998 25.439999999999998 l0.08 -0.08 c0 -0.04 -0.04 -0.08 -0.08 -0.08 l-0.04 0 l-0.08 0.04 l0 0.04 c0.04 0.04 0.08 0.08 0.12 0.08 z M24.067999999999998 26.16 l-0.04 0 c-0.04 0 -0.04 0 -0.04 -0.04 l0.08 -0.04 l0.08 0.04 z M22.747999999999998 26.52 l0.04 -0.12 l0 -0.04 c0 -0.04 0 -0.04 -0.04 -0.04 l-0.04 0 l-0.08 0.16 l0.08 0.04 l0.04 0 z M29.827999999999996 25.6 l0.08 -0.04 l-0.04 0 c0 -0.04 -0.04 -0.04 -0.04 -0.04 l-0.08 0.04 l0 0.04 l0.08 0 z M29.227999999999998 26 c0.16 0 0.44 -0.08 0.44 -0.2 c0 -0.04 -0.08 -0.04 -0.12 -0.04 c-0.08 0 -0.16 -0.04 -0.2 -0.08 l-0.04 -0.04 l0 0.32 l-0.08 -0.08 l-0.12 -0.04 l-0.04 0 l0 0.04 c0 0.04 0.04 0.08 0.08 0.12 l0.08 0 z M21.548 27.16 c0 -0.04 0 -0.08 -0.04 -0.12 l-0.04 0 l0 0.08 l0.04 0.04 l0.04 0 z M28.467999999999996 26.72 c0.12 0 0.16 -0.04 0.16 -0.12 c0 -0.04 0 -0.04 0.04 -0.04 l0.04 0 c0.12 0 0.24 -0.24 0.24 -0.36 l0 -0.08 l-0.08 -0.04 c-0.16 0 -0.32 0.12 -0.32 0.2 l0.04 0.04 l0.2 -0.08 l0.04 0.08 l0 0.04 c0 0.04 -0.04 0.04 -0.08 0.08 c-0.08 0 -0.2 0.08 -0.28 0.16 l-0.08 0.12 l0.08 0 z M29.988 26.28 l0.12 -0.04 c0.04 0 0.08 -0.04 0.08 -0.08 s-0.04 -0.04 -0.12 -0.04 c-0.08 0.04 -0.12 0.08 -0.12 0.12 z M33.507999999999996 26 c0 -0.04 0 -0.12 -0.04 -0.12 l-0.04 -0.04 l0 0.08 c0 0.08 0.04 0.08 0.08 0.08 z M27.747999999999998 27.119999999999997 l0.04 -0.08 c-0.04 -0.04 -0.04 -0.08 -0.08 -0.08 l-0.04 0 l-0.08 0.04 l0.04 0.04 c0.04 0.04 0.08 0.08 0.12 0.08 z M22.587999999999997 27.92 l0.04 -0.08 l-0.08 -0.04 l0 0.08 z M26.827999999999996 27.72 c0.16 0 0.32 -0.08 0.32 -0.12 c0 -0.08 0.12 -0.12 0.24 -0.16 c0.2 -0.04 0.28 -0.12 0.28 -0.16 s-0.04 -0.08 -0.16 -0.08 l-0.24 0 s0 0.04 0.08 0.08 c0.04 0.04 0.08 0.04 0.08 0.08 l-0.24 0 c-0.08 0 -0.12 0 -0.16 0.04 c0 0.08 -0.12 0.12 -0.24 0.12 l-0.16 0.08 l0 0.04 c0.04 0.04 0.12 0.08 0.2 0.08 z M28.747999999999998 27.240000000000002 c0.04 0 0.08 -0.04 0.08 -0.08 c-0.04 -0.08 -0.04 -0.08 -0.08 -0.08 l-0.08 0.08 c0 0.04 0 0.08 0.04 0.08 l0.04 0 z M24.028 27.84 l0.12 -0.04 l-0.04 -0.04 l-0.12 0 l-0.08 0.04 l-0.04 0.04 l0.16 0 z M20.948 28.439999999999998 c0 -0.04 0 -0.08 -0.04 -0.12 c-0.04 0 -0.04 0.04 -0.04 0.08 l0.04 0.04 l0.04 0 z M22.548 28.240000000000002 l0.04 -0.12 l-0.08 -0.04 l0 0.08 z M34.068 26.560000000000002 c-0.04 0 -0.08 0 -0.12 -0.08 l-0.04 -0.04 l0.08 0 l0.12 0.08 c0 0.04 0 0.04 -0.04 0.04 z M22.508 28.72 c0.04 -0.04 0.08 -0.04 0.08 -0.08 l-0.16 -0.08 l-0.04 0.08 c0.04 0.04 0.08 0.08 0.12 0.08 z M26.028 28.4 l0.08 -0.12 c0 -0.04 0 -0.08 -0.08 -0.08 c-0.04 0 -0.08 0.04 -0.08 0.08 z M22.348 29.08 l0.04 -0.04 l0.08 -0.16 c-0.04 0 -0.04 -0.04 -0.04 -0.04 l-0.08 0.04 l-0.04 0.08 l0 0.08 z M25.028 28.8 l0.08 -0.04 l-0.08 -0.04 l-0.08 0.04 c0 0.04 0.04 0.04 0.08 0.04 z M22.308 29.48 c0.04 0 0.08 -0.04 0.08 -0.12 l0 -0.04 c0 -0.04 0 -0.04 -0.04 -0.04 s-0.08 0.04 -0.08 0.12 z M23.148 29.439999999999998 l-0.04 -0.08 l0 -0.08 l0.04 0 c0.04 0.04 0.04 0.08 0.04 0.12 z M34.788 28.04 l0.04 -0.04 c0 -0.04 -0.04 -0.12 -0.12 -0.2 l-0.08 -0.08 l-0.04 0 l0.04 0.08 c0 0.12 0.08 0.24 0.16 0.24 z M19.787999999999997 30.240000000000002 l0 -0.12 c0 -0.12 0.04 -0.2 0.08 -0.2 c0.08 0 0.08 0.04 0.08 0.08 s0 0.12 -0.08 0.2 z M22.028 29.8 l0.08 -0.12 c0 -0.04 -0.04 -0.08 -0.08 -0.08 s-0.08 0.08 -0.08 0.12 s0.04 0.08 0.08 0.08 z M20.948 30.240000000000002 l0.04 -0.08 l-0.12 0 l0 0.04 z M21.668 30.28 c0 -0.04 0 -0.08 -0.04 -0.12 c-0.04 0 -0.04 0 -0.04 0.08 l0.04 0.04 l0.04 0 z M22.148 30.4 l0.08 -0.04 c0.04 -0.04 0.08 -0.04 0.08 -0.08 l-0.12 -0.08 l-0.16 0 c-0.04 0 -0.08 0.04 -0.08 0.08 l-0.04 0.08 l0.12 -0.08 l0.04 0.04 c0 0.04 0.04 0.08 0.08 0.08 z M22.467999999999996 30.36 l0.04 -0.04 l-0.04 -0.12 c-0.04 0 -0.04 0.04 -0.04 0.08 z M23.387999999999998 30.32 l-0.04 -0.08 c0 -0.04 0 -0.08 0.04 -0.08 l0.08 0.08 z M21.067999999999998 30.64 l0.04 -0.08 l-0.08 -0.04 c-0.04 0 -0.04 0 -0.04 0.08 z M35.147999999999996 28.84 l0.04 -0.04 c0 -0.04 -0.08 -0.08 -0.16 -0.16 l-0.12 -0.04 l0.04 0.08 c0.04 0.08 0.16 0.16 0.2 0.16 z M22.188 30.68 l0.08 -0.08 c0 -0.04 0 -0.08 -0.04 -0.08 l-0.04 0 c-0.04 0 -0.08 0.04 -0.08 0.08 c0.04 0.04 0.04 0.08 0.08 0.08 z M35.548 28.92 l-0.04 0 s-0.04 -0.04 -0.04 -0.12 l0 -0.08 s0.04 0 0.04 0.04 c0.04 0.04 0.04 0.12 0.04 0.16 z M22.028 31.880000000000003 c0.04 0 0.04 -0.12 0.12 -0.32 c0.04 -0.24 0.04 -0.48 0.04 -0.52 l-0.04 -0.04 c-0.04 0 -0.04 0.04 -0.08 0.16 c0 0.12 -0.04 0.2 -0.12 0.2 c-0.04 0 -0.04 0.04 -0.04 0.08 l0.04 0.24 c0.04 0.12 0.04 0.2 0.08 0.2 z M21.508 31.240000000000002 c0.04 0 0.08 -0.04 0.12 -0.08 l0 -0.08 l-0.08 0.04 c-0.08 0.04 -0.12 0.08 -0.12 0.12 l0.08 0 z M22.907999999999998 31.32 c-0.04 0 -0.04 -0.04 -0.04 -0.08 l0 -0.08 c0 -0.12 0 -0.2 0.04 -0.2 l0.08 0.16 c0 0.12 -0.04 0.2 -0.08 0.2 z M22.387999999999998 31.560000000000002 c0 -0.04 0 -0.08 -0.04 -0.12 l-0.04 0 l0 0.08 l0.04 0.04 l0.04 0 z M22.907999999999998 31.6 l-0.04 -0.08 l0 -0.08 l0.04 0 c0.04 0.04 0.04 0.08 0.04 0.12 z M35.867999999999995 30.2 l0.04 -0.04 l-0.04 -0.16 c0 -0.08 -0.08 -0.16 -0.12 -0.16 l-0.04 0.04 l0.04 0.16 z M21.508 33.08 c0.04 0 0.16 -0.08 0.2 -0.2 c0.08 -0.12 0.12 -0.16 0.16 -0.16 l0.04 0.08 c0 0.08 0 0.12 0.04 0.12 l0.16 -0.16 c0.12 -0.08 0.2 -0.28 0.2 -0.36 l-0.04 -0.04 l-0.12 0.04 l-0.08 -0.12 c0 -0.16 -0.04 -0.2 -0.12 -0.2 l-0.04 0 l-0.08 -0.04 l0 -0.08 l-0.04 0 l0 0.04 c0 0.08 0.04 0.16 0.08 0.2 l0.08 0.16 l-0.08 0.16 l-0.08 0.08 l-0.04 0 l0.04 -0.12 l0 -0.16 c-0.04 0 -0.08 0.04 -0.16 0.16 c-0.04 0.08 -0.08 0.16 -0.08 0.24 l0.04 0.16 l-0.04 0.12 l-0.08 0.08 l0.04 0 z M22.868 32.04 l-0.04 0 l-0.08 -0.04 l0.08 -0.16 l0.08 0 l0 0.08 z M22.308 32.16 c0.04 0 0.04 -0.04 0.04 -0.08 l0 -0.08 l-0.04 -0.08 l-0.04 0 c-0.04 0.04 -0.04 0.12 -0.04 0.16 s0.04 0.08 0.08 0.08 z M23.067999999999998 32.12 l0.08 -0.24 l0.04 0 l0.04 0.08 l-0.08 0.08 c-0.04 0.04 -0.04 0.08 -0.08 0.08 z M36.108 30.439999999999998 l0 -0.08 l-0.04 -0.08 l-0.04 0 l-0.08 0.04 l0.04 0.04 c0.04 0.04 0.08 0.08 0.12 0.08 z M22.787999999999997 32.44 l-0.04 -0.08 l0 -0.08 l0.04 0 c0.04 0.04 0.04 0.12 0.04 0.12 z M21.348 32.84 c0.04 0 0.08 -0.08 0.08 -0.12 l-0.08 -0.16 l-0.08 0.16 c0 0.08 0.04 0.12 0.08 0.12 z M20.787999999999997 33 c0.04 0 0.04 0 0.04 -0.04 l-0.2 -0.08 s0 0.04 0.04 0.04 c0.04 0.08 0.08 0.08 0.12 0.08 z M36.108 30.880000000000003 l0 -0.04 c0 -0.04 -0.04 -0.08 -0.08 -0.12 l-0.08 -0.04 c-0.04 0 -0.04 0.04 -0.08 0.08 l0 0.08 l0.12 -0.08 l0.04 0.08 l0.04 0.04 l0.04 0 z M36.348 30.880000000000003 c0.04 0 0.04 -0.04 0.04 -0.08 l0 -0.08 c0 -0.04 -0.04 -0.08 -0.08 -0.08 l-0.04 0 l-0.04 0.08 z M20.387999999999998 33.16 c0.04 0 0.08 -0.04 0.12 -0.08 c0 -0.04 -0.04 -0.08 -0.08 -0.08 l-0.04 0 c-0.08 0 -0.12 0.04 -0.12 0.08 s0.04 0.08 0.08 0.08 l0.04 0 z M21.308 33.12 c0.04 0 0.08 -0.04 0.08 -0.08 s-0.04 -0.08 -0.08 -0.08 l-0.08 0.08 c0 0.04 0 0.08 0.04 0.08 l0.04 0 z M22.988 32.96 l0 -0.08 l0.04 -0.16 l0.04 0 l0.04 0.08 z M36.628 31.28 l0.04 -0.08 l-0.04 -0.08 l-0.04 0 c-0.04 0 -0.04 0.04 -0.04 0.08 z M21.628 33.56 l0.08 -0.12 c0 -0.04 -0.04 -0.08 -0.08 -0.08 s-0.08 0.04 -0.08 0.12 c0 0.04 0.04 0.08 0.08 0.08 z M22.948 33.36 l0 -0.08 l0.08 -0.12 c0.04 0 0.04 0.04 0.04 0.08 c-0.04 0.08 -0.08 0.12 -0.12 0.12 z M21.907999999999998 33.480000000000004 c0 -0.04 0 -0.08 -0.04 -0.12 c-0.04 0 -0.04 0 -0.04 0.08 l0.04 0.04 l0.04 0 z M20.907999999999998 33.76 l0.08 -0.12 l0 -0.08 c-0.04 0 -0.08 0.04 -0.08 0.08 l-0.04 0.08 z M22.668 33.64 l-0.08 -0.04 c0 -0.04 0 -0.08 0.04 -0.08 l0.08 0.04 z M21.828 33.88 c0.04 0 0.08 -0.08 0.08 -0.12 l0 -0.04 c0 -0.04 -0.04 -0.08 -0.08 -0.08 l-0.08 0.04 c-0.12 0.04 -0.2 0.04 -0.24 0.08 c0 0 0.2 0.12 0.28 0.12 l0.04 0 z M37.108 31.880000000000003 l-0.04 -0.16 l-0.08 -0.08 l-0.04 0 l0.04 0.16 z M21.227999999999998 34.16 l0.08 -0.04 l-0.04 -0.04 l-0.08 0 s-0.04 0 -0.04 0.04 l0 0.04 l0.08 0 z M37.348 32.28 l0.04 -0.08 l-0.08 -0.16 c-0.08 -0.04 -0.08 -0.08 -0.12 -0.08 l0 0.08 c0.04 0.12 0.12 0.24 0.16 0.24 z M21.747999999999998 34.36 l0.04 -0.08 l-0.04 -0.08 c-0.04 0 -0.04 0.04 -0.04 0.08 z M21.188 34.6 l0 -0.04 l-0.04 -0.08 c-0.04 0 -0.04 0.04 -0.04 0.08 s0.04 0.04 0.04 0.04 l0.04 0 z M36.828 32.480000000000004 l0.04 -0.08 l-0.12 0 l0 0.04 z M21.508 35.32 c0.08 0 0.2 -0.12 0.24 -0.32 l0.04 -0.28 c0 -0.08 -0.04 -0.08 -0.08 -0.08 c-0.08 0.04 -0.08 0.08 -0.08 0.16 s-0.04 0.16 -0.12 0.16 l-0.08 0.04 l0.04 0.04 c0.04 0 0.12 0.04 0.12 0.12 c0 0.04 -0.04 0.04 -0.08 0.04 l-0.04 0 l-0.04 0.04 c0 0.08 0.04 0.08 0.08 0.08 z M37.94799999999999 32.480000000000004 l-0.08 0 l0.04 -0.08 l0.08 0.04 z M21.067999999999998 35.56 l0.12 -0.32 c0 -0.04 0 -0.04 -0.08 -0.04 s-0.12 0.08 -0.12 0.2 c0.04 0.08 0.04 0.16 0.08 0.16 z M37.468 32.92 l0.04 -0.04 l-0.08 -0.04 l-0.04 0.08 l0.08 0 z M21.828 35.72 l0.08 -0.04 l0.04 -0.12 l-0.04 -0.08 c-0.04 0.04 -0.08 0.08 -0.08 0.16 l0 0.08 z M21.028 35.84 l0.04 -0.08 l-0.04 -0.04 c0 -0.04 -0.04 -0.04 -0.04 -0.04 l0 0.08 z M21.668 35.76 l0.04 -0.12 l-0.08 -0.04 c-0.04 0 -0.04 0.04 -0.04 0.08 z M38.468 33.8 c0.04 0 0.08 -0.04 0.08 -0.12 l-0.08 -0.04 l-0.04 0 c-0.04 0 -0.08 0.04 -0.08 0.08 s0.08 0.08 0.12 0.08 z M22.387999999999998 36.36 l-0.04 0 c-0.04 0 -0.04 -0.04 -0.08 -0.08 c0 -0.08 0.04 -0.16 0.08 -0.2 c0.04 0 0.08 0 0.08 0.08 l0 0.08 z M20.508 36.84 c0 -0.04 0 -0.12 -0.04 -0.12 c0 0 0 -0.04 -0.04 -0.04 l0 0.08 l0.04 0.08 l0.04 0 z M21.868 36.64 c0 -0.04 0 -0.08 -0.04 -0.12 l-0.04 0 l0 0.08 l0.04 0.04 l0.04 0 z M22.308 36.84 l-0.04 -0.08 c0 -0.08 0 -0.16 0.04 -0.2 l0.04 0 c0.04 0 0.04 0.04 0.04 0.12 c-0.04 0.12 -0.04 0.16 -0.08 0.16 z M20.628 37.2 l0.08 -0.08 l0.08 -0.16 l0 -0.04 l-0.08 0 c-0.08 0.04 -0.12 0.08 -0.12 0.16 l0 0.08 z M21.587999999999997 36.88 c0.08 0 0.12 -0.04 0.12 -0.04 l0 -0.04 l-0.08 0 c-0.04 0 -0.08 0 -0.08 0.04 l-0.04 0.04 l0.08 0 z M21.427999999999997 38 l0.04 -0.04 c0.04 -0.04 0.08 -0.12 0.08 -0.2 l-0.04 -0.12 c-0.04 0 -0.04 0.04 -0.08 0.12 l-0.04 0.16 z M21.267999999999997 38.32 l0.08 -0.04 l-0.08 -0.04 l-0.08 0.04 c0 0.04 0 0.04 0.08 0.04 z M21.708 38.32 l0 -0.04 l-0.04 -0.08 c-0.04 0 -0.04 0 -0.04 0.08 l0.04 0.04 l0.04 0 z M21.988 38.4 c-0.04 0 -0.04 -0.04 -0.04 -0.08 c0.04 -0.08 0.08 -0.12 0.12 -0.12 l0 0.08 z M40.548 37.08 c0 -0.04 0 -0.08 -0.04 -0.12 c-0.04 0 -0.04 0 -0.04 0.08 l0.04 0.04 l0.04 0 z M41.188 37.2 l-0.04 -0.2 c-0.04 -0.04 -0.08 -0.12 -0.12 -0.12 l0 0.04 c0 0.12 0.08 0.28 0.16 0.28 z M40.708 37.52 c0.04 0 0.04 0 0.04 -0.04 l-0.12 -0.08 l-0.08 0 s0 0.04 0.04 0.04 c0.04 0.08 0.08 0.08 0.12 0.08 z M41.788 37.76 c0 -0.04 -0.08 -0.12 -0.16 -0.2 l-0.24 -0.2 l0 0.16 c0.04 0.12 0.12 0.2 0.2 0.2 c0.12 0 0.2 0.04 0.2 0.04 z M41.548 40.32 l-0.24 -0.04 l-0.12 -0.12 l0.08 0 c0.12 0 0.28 0.12 0.28 0.16 z"></path></g><g id="SvgjsG2727" featureKey="sloganFeature-0" transform="matrix(0.18015094541380447,0,0,0.18015094541380447,81.7941596049522,192.91804038772202)" fill="url(#SvgjsLinearGradient2744)"><path d="M8.0469 20.18555 c-3.916 0 -6.9043 -2.6855 -6.9043 -7.0996 c0 -4.3945 2.9883 -7.0801 6.9043 -7.0801 c2.793 0 5.1074 1.3867 6.1719 3.7598 l-1.7969 0.71289 c-0.80078 -1.6895 -2.4316 -2.6367 -4.375 -2.6367 c-2.7734 0 -4.9707 1.9141 -4.9707 5.2441 c0 3.3496 2.1973 5.2637 4.9707 5.2637 c1.9434 0 3.5742 -0.94727 4.375 -2.6367 l1.7969 0.72266 c-1.0645 2.3633 -3.3789 3.75 -6.1719 3.75 z M25.377222265625 20.18555 c-3.916 0 -6.9043 -2.6953 -6.9043 -7.0996 c0 -4.3945 2.9883 -7.0801 6.9043 -7.0801 c3.8965 0 6.8945 2.6855 6.8945 7.0801 c0 4.4043 -2.998 7.0996 -6.8945 7.0996 z M25.377222265625 18.3594 c2.7637 0 4.9512 -1.9141 4.9512 -5.2734 c0 -3.3301 -2.1875 -5.2441 -4.9512 -5.2441 c-2.7734 0 -4.9707 1.9141 -4.9707 5.2441 c0 3.3594 2.1973 5.2734 4.9707 5.2734 z M37.82469765625 20 l0 -13.809 l4.5508 0 c4.248 0 6.4063 2.8516 6.4063 6.8945 c0 4.0723 -2.1582 6.9141 -6.4063 6.9141 l-4.5508 0 z M39.76809765625 18.2422 l2.5293 0 c3.0176 0 4.4531 -2.002 4.4531 -5.1563 c0 -3.1348 -1.4355 -5.1465 -4.4531 -5.1465 l-2.5293 0 l0 10.303 z M54.383535546875 20 l0 -13.809 l1.9434 0 l0 13.809 l-1.9434 0 z M72.1530703125 6.191000000000001 l1.9336 0 l0 13.809 l-2.0996 0 l-7.2168 -10.957 l0 10.957 l-1.9238 0 l0 -13.809 l2.0801 0 l7.2266 10.908 l0 -10.908 z M86.475814453125 20.18555 c-3.8672 0 -6.8359 -2.6465 -6.8359 -7.0508 c0 -4.4434 2.9883 -7.1289 6.9043 -7.1289 c2.5391 0 4.7168 1.1133 5.9082 3.2227 l-1.7188 0.91797 c-0.86914 -1.6211 -2.4219 -2.373 -4.1895 -2.373 c-2.793 0 -4.9512 1.8945 -4.9512 5.3223 c0 3.3789 2.1094 5.3418 5.0195 5.3418 c2.3438 0 4.1797 -1.3184 4.502 -3.9355 l-4.5117 0 l0 -1.6211 l6.3965 0 l0 7.1191 l-1.582 0 l0 -2.4805 c-0.9082 1.6895 -2.6172 2.666 -4.9414 2.666 z M106.351308984375 20 l0 -13.809 l4.5508 0 c4.248 0 6.4063 2.8516 6.4063 6.8945 c0 4.0723 -2.1582 6.9141 -6.4063 6.9141 l-4.5508 0 z M108.294708984375 18.2422 l2.5293 0 c3.0176 0 4.4531 -2.002 4.4531 -5.1563 c0 -3.1348 -1.4355 -5.1465 -4.4531 -5.1465 l-2.5293 0 l0 10.303 z M130.361346875 20 l-3.5742 -6.2109 l-1.9336 0 l0 6.2109 l-1.9434 0 l0 -13.809 l4.6484 0 c2.8906 0 4.209 1.7676 4.209 3.9355 c0 1.9238 -1.1328 3.2617 -3.0273 3.584 l3.8965 6.2891 l-2.2754 0 z M124.853546875 7.871 l0 4.4336 l2.4414 0 c1.7969 0 2.6074 -0.89844 2.6074 -2.207 c0 -1.2891 -0.81055 -2.2266 -2.6074 -2.2266 l-2.4414 0 z M145.289331640625 7.939 l-5.5273 0 l0 4.2969 l4.873 0 l0 1.7383 l-4.873 0 l0 4.2676 l5.5273 0 l0 1.7578 l-7.5098 0 l0 -13.809 l7.5098 0 l0 1.748 z M159.82650390625 20 l-1.1523 -3.2227 l-6.1719 0 l-1.1523 3.2227 l-2.0215 0 l5.0879 -13.809 l2.3438 0 l5.0879 13.809 l-2.0215 0 z M153.10790390625 15.0781 l4.9609 0 l-2.4805 -6.9629 z M181.610044921875 20 l-1.9043 0 l-0.9082 -11.23 l-4.2676 11.23 l-1.1816 0 l-4.2383 -11.191 l-0.92773 11.191 l-1.9141 0 l1.0645 -13.809 l2.627 0 l3.9746 10.439 l3.9941 -10.439 l2.627 0 z M191.9189640625 20.18555 c-2.8809 0 -4.9902 -1.377 -5.459 -3.7207 l1.9824 -0.46875 c0.3125 1.6113 1.709 2.5391 3.5449 2.5391 c1.4746 0 2.8906 -0.60547 2.8613 -2.2656 c-0.019531 -1.6406 -1.7969 -2.0898 -3.6816 -2.6074 c-2.1387 -0.58594 -4.2773 -1.2598 -4.2773 -3.7988 c0 -2.5684 2.1191 -3.8574 4.6289 -3.8574 c2.4316 0 4.6191 1.0254 5.1367 3.3984 l-1.8848 0.47852 c-0.3418 -1.5332 -1.6211 -2.2168 -3.1641 -2.2168 c-1.3867 0 -2.7637 0.60547 -2.7637 2.1777 c0 1.4258 1.543 1.8457 3.291 2.3145 c2.1973 0.5957 4.7168 1.2793 4.7168 4.0527 c0 2.793 -2.3438 3.9746 -4.9316 3.9746 z M203.360626953125 23.5352 l-1.3672 0 l1.2012 -6.1133 l1.9531 0 z M225.238074609375 12.773399999999999 c1.6309 0.41016 2.7246 1.5332 2.7246 3.457 c0 2.2168 -1.5039 3.7695 -3.9844 3.7695 l-5.4297 0 l0 -13.809 l4.2383 0 c2.5488 0 4.1602 1.4844 4.1602 3.6719 c0 1.3086 -0.5957 2.3828 -1.709 2.9102 z M225.130574609375 9.99 c0 -1.1914 -0.85938 -2.1191 -2.3535 -2.1191 l-2.3438 0 l0 4.2969 l2.6465 0 c1.25 0 2.0508 -0.97656 2.0508 -2.1777 z M223.646274609375 18.291 c1.5723 0 2.4219 -1.0547 2.4219 -2.2559 c0 -1.2695 -0.88867 -2.2852 -2.5391 -2.2852 l-3.0957 0 l0 4.541 l3.2129 0 z M238.20309375 20.18555 c-2.8613 0 -5.0781 -1.6895 -5.0781 -4.8047 l0 -9.1895 l1.9434 0 l0 8.916 c0 2.2754 1.3672 3.3203 3.1348 3.3203 s3.1641 -1.0547 3.1641 -3.3203 l0 -8.916 l1.9434 0 l0 9.1895 c0 3.1152 -2.2266 4.8047 -5.1074 4.8047 z M249.537344140625 20 l0 -13.809 l1.9434 0 l0 13.809 l-1.9434 0 z M259.94387890625 18.2422 l4.7168 0 l0 1.7578 l-6.6602 0 l0 -13.809 l1.9434 0 l0 12.051 z M269.608144921875 20 l0 -13.809 l4.5508 0 c4.248 0 6.4063 2.8516 6.4063 6.8945 c0 4.0723 -2.1582 6.9141 -6.4063 6.9141 l-4.5508 0 z M271.551544921875 18.2422 l2.5293 0 c3.0176 0 4.4531 -2.002 4.4531 -5.1563 c0 -3.1348 -1.4355 -5.1465 -4.4531 -5.1465 l-2.5293 0 l0 10.303 z M286.1669828125 20 l0 -13.809 l1.9434 0 l0 13.809 l-1.9434 0 z M303.936517578125 6.191000000000001 l1.9336 0 l0 13.809 l-2.0996 0 l-7.2168 -10.957 l0 10.957 l-1.9238 0 l0 -13.809 l2.0801 0 l7.2266 10.908 l0 -10.908 z M318.25926171875 20.18555 c-3.8672 0 -6.8359 -2.6465 -6.8359 -7.0508 c0 -4.4434 2.9883 -7.1289 6.9043 -7.1289 c2.5391 0 4.7168 1.1133 5.9082 3.2227 l-1.7188 0.91797 c-0.86914 -1.6211 -2.4219 -2.373 -4.1895 -2.373 c-2.793 0 -4.9512 1.8945 -4.9512 5.3223 c0 3.3789 2.1094 5.3418 5.0195 5.3418 c2.3438 0 4.1797 -1.3184 4.502 -3.9355 l-4.5117 0 l0 -1.6211 l6.3965 0 l0 7.1191 l-1.582 0 l0 -2.4805 c-0.9082 1.6895 -2.6172 2.666 -4.9414 2.666 z M345.58595625 20 l-3.5742 -6.2109 l-1.9336 0 l0 6.2109 l-1.9434 0 l0 -13.809 l4.6484 0 c2.8906 0 4.209 1.7676 4.209 3.9355 c0 1.9238 -1.1328 3.2617 -3.0273 3.584 l3.8965 6.2891 l-2.2754 0 z M340.07815625 7.871 l0 4.4336 l2.4414 0 c1.7969 0 2.6074 -0.89844 2.6074 -2.207 c0 -1.2891 -0.81055 -2.2266 -2.6074 -2.2266 l-2.4414 0 z M360.513941015625 7.939 l-5.5273 0 l0 4.2969 l4.873 0 l0 1.7383 l-4.873 0 l0 4.2676 l5.5273 0 l0 1.7578 l-7.5098 0 l0 -13.809 l7.5098 0 l0 1.748 z M375.05111328125 20 l-1.1523 -3.2227 l-6.1719 0 l-1.1523 3.2227 l-2.0215 0 l5.0879 -13.809 l2.3438 0 l5.0879 13.809 l-2.0215 0 z M368.33251328125 15.0781 l4.9609 0 l-2.4805 -6.9629 z M383.963654296875 18.2422 l4.7168 0 l0 1.7578 l-6.6602 0 l0 -13.809 l1.9434 0 l0 12.051 z M393.6279203125 20 l0 -13.809 l1.9434 0 l0 13.809 l-1.9434 0 z M409.444555078125 6.191000000000001 l0 1.748 l-3.4961 0 l0 12.061 l-1.9238 0 l0 -12.061 l-3.5059 0 l0 -1.748 l8.9258 0 z M414.38231484375 20 l0 -13.809 l1.9434 0 l0 13.809 l-1.9434 0 z M430.355249609375 7.939 l-5.5273 0 l0 4.2969 l4.873 0 l0 1.7383 l-4.873 0 l0 4.2676 l5.5273 0 l0 1.7578 l-7.5098 0 l0 -13.809 l7.5098 0 l0 1.748 z M440.283221875 20.18555 c-2.8809 0 -4.9902 -1.377 -5.459 -3.7207 l1.9824 -0.46875 c0.3125 1.6113 1.709 2.5391 3.5449 2.5391 c1.4746 0 2.8906 -0.60547 2.8613 -2.2656 c-0.019531 -1.6406 -1.7969 -2.0898 -3.6816 -2.6074 c-2.1387 -0.58594 -4.2773 -1.2598 -4.2773 -3.7988 c0 -2.5684 2.1191 -3.8574 4.6289 -3.8574 c2.4316 0 4.6191 1.0254 5.1367 3.3984 l-1.8848 0.47852 c-0.3418 -1.5332 -1.6211 -2.2168 -3.1641 -2.2168 c-1.3867 0 -2.7637 0.60547 -2.7637 2.1777 c0 1.4258 1.543 1.8457 3.291 2.3145 c2.1973 0.5957 4.7168 1.2793 4.7168 4.0527 c0 2.793 -2.3438 3.9746 -4.9316 3.9746 z"></path></g>
			</g>
		</svg>
	